<svg width="51" height="40" viewBox="0 0 51 40" fill="none" xmlns="http://www.w3.org/2000/svg">
<path d="M20.3727 31.3655C19.5857 31.3655 18.8309 31.3655 18.0697 31.3655C12.5991 31.3655 7.12852 31.3655 1.65149 31.3655C0.651566 31.3655 0 30.7139 0 29.7011C0 22.1855 0 14.6699 0 7.16078C0 5.36736 0 3.56749 0 1.77407C0 0.625762 0.625762 0 1.77407 0C17.3213 0 32.8622 0 48.4094 0C49.5577 0 50.19 0.632213 50.19 1.77407C50.19 11.0379 50.1835 20.3082 50.2029 29.5721C50.2029 30.6365 49.4739 31.3848 48.4094 31.3784C42.326 31.3526 36.2426 31.3655 30.1527 31.3655C30.0495 31.3655 29.9462 31.3655 29.8043 31.3655C29.8301 31.7913 29.8495 32.1848 29.8817 32.5783C29.9398 33.417 30.0043 34.2492 30.0688 35.0878C30.1591 36.2232 30.6817 37.107 31.6429 37.7199C32.3074 38.1392 32.9912 38.5198 33.6557 38.9391C33.8234 39.0488 33.9847 39.223 34.0685 39.4036C34.2169 39.7262 34.0363 39.9842 33.675 39.9907C33.1138 40.0036 32.559 39.9971 31.9977 39.9971C26.9142 39.9971 21.8307 39.9971 16.7407 39.9971C16.6569 39.9971 16.5666 40.0036 16.4827 39.9971C16.1666 39.9713 15.986 39.7262 16.115 39.4359C16.1924 39.2553 16.3408 39.0617 16.5085 38.9585C17.1859 38.5263 17.889 38.1328 18.5729 37.7005C19.476 37.1328 19.9986 36.3006 20.1082 35.2491C20.2308 34.0427 20.2889 32.8299 20.3727 31.6171C20.3792 31.5461 20.3727 31.4687 20.3727 31.3655ZM47.803 28.2109C47.803 19.5921 47.803 10.9928 47.803 2.38693C32.6557 2.38693 17.5278 2.38693 2.38693 2.38693C2.38693 11.0057 2.38693 19.5986 2.38693 28.2109C17.5278 28.2109 32.6493 28.2109 47.803 28.2109Z" fill="black"/>
<path d="M35.5781 7.70264C35.5781 7.83166 35.5781 7.95423 35.5781 8.08325C35.5781 10.5024 35.5845 12.9216 35.5716 15.3408C35.5716 15.6247 35.6426 15.8504 35.7974 16.0891C37.1779 18.218 38.552 20.3469 39.9261 22.4758C38.1005 23.7015 34.6749 24.1079 31.8557 22.3209C28.7914 20.3791 27.4302 16.6891 28.5011 13.2442C29.6107 9.67024 32.8557 7.7865 35.5781 7.70264Z" fill="black"/>
<path d="M43.5065 11.2896C45.8289 15.1796 44.571 20.1663 41.1841 22.5146C39.81 20.3857 38.4424 18.2632 37.0554 16.115C39.2165 14.5022 41.3583 12.9023 43.5065 11.2896Z" fill="black"/>
<path d="M16.6117 13.4313C18.1535 11.6765 19.676 9.94763 21.2565 8.15421C20.5534 8.15421 19.9276 8.14776 19.2954 8.15421C19.0373 8.15421 18.8309 8.0768 18.7148 7.83166C18.5342 7.43814 18.8116 7.05107 19.3083 7.04462C20.005 7.03816 20.7082 7.04462 21.4049 7.04462C21.7404 7.04462 22.0694 7.03816 22.4048 7.04462C22.8564 7.05752 23.0564 7.2446 23.0629 7.69618C23.0693 8.74127 23.0693 9.7799 23.0629 10.825C23.0629 11.2121 22.8435 11.4508 22.5145 11.4508C22.1791 11.4508 21.9597 11.2056 21.9533 10.8056C21.9468 10.2508 21.9533 9.69604 21.9533 9.05092C21.7662 9.25736 21.6372 9.39928 21.5146 9.54121C20.0824 11.1734 18.6438 12.799 17.2117 14.4312C16.8569 14.8376 16.6117 14.857 16.1988 14.5279C14.857 13.4571 13.5152 12.3797 12.1733 11.3088C12.0895 11.2443 12.0056 11.1798 11.9088 11.1024C10.9541 11.9991 10.0057 12.8894 9.06386 13.7796C8.23166 14.5602 7.40592 15.3408 6.57372 16.1214C6.52856 16.1665 6.4834 16.2117 6.43179 16.2504C6.17375 16.4568 5.85119 16.4439 5.64475 16.2311C5.43187 16.0053 5.43187 15.6892 5.67056 15.4505C6.12214 15.0053 6.59307 14.5796 7.0511 14.1409C8.48971 12.7861 9.92832 11.4314 11.3734 10.0767C11.754 9.72184 11.9475 9.70894 12.354 10.0379C13.7603 11.154 15.1731 12.2829 16.6117 13.4313Z" fill="black"/>
<path d="M19.7534 18.5794C19.7534 17.1924 19.7534 15.8118 19.7534 14.4248C19.7534 13.812 19.9211 13.6442 20.5404 13.6442C21.1533 13.6442 21.7661 13.6378 22.379 13.6442C22.8757 13.6507 23.0628 13.8313 23.0628 14.328C23.0628 17.1601 23.0628 19.9986 23.0628 22.8307C23.0628 23.3403 22.8693 23.5274 22.3596 23.5338C21.7274 23.5338 21.0952 23.5338 20.4565 23.5338C19.9534 23.5338 19.7534 23.3339 19.7534 22.8307C19.7469 21.4179 19.7534 19.9986 19.7534 18.5794Z" fill="black"/>
<path d="M42.9324 10.3929C40.8293 11.9669 38.7649 13.5088 36.6619 15.0893C36.6619 12.3863 36.6619 9.7413 36.6619 7.05762C39.2359 7.26405 41.2938 8.3801 42.9324 10.3929Z" fill="black"/>
<path d="M10.2509 19.3922C10.2509 18.2568 10.2509 17.1149 10.2509 15.9795C10.2509 15.4828 10.438 15.2957 10.9282 15.2892C11.5863 15.2892 12.2378 15.2828 12.8958 15.2892C13.3474 15.2892 13.5539 15.4892 13.5539 15.9344C13.5539 18.2503 13.5539 20.5727 13.5539 22.8887C13.5539 23.3145 13.3474 23.5274 12.9281 23.5274C12.2507 23.5338 11.5734 23.5338 10.896 23.5274C10.4573 23.5209 10.2638 23.3145 10.2573 22.8629C10.2509 21.7081 10.2509 20.5534 10.2509 19.3922Z" fill="black"/>
<path d="M15.0118 20.2566C15.0118 19.3857 15.0118 18.5148 15.0118 17.6439C15.0118 17.1149 15.186 16.9407 15.6956 16.9343C16.3407 16.9278 16.9858 16.9278 17.6309 16.9343C18.1148 16.9407 18.3083 17.1407 18.3083 17.631C18.3083 19.3599 18.3083 21.0888 18.3083 22.8242C18.3083 23.3338 18.1083 23.5338 17.6116 23.5338C16.9665 23.5338 16.3214 23.5403 15.6762 23.5338C15.2053 23.5338 15.0118 23.3403 15.0118 22.8693C15.0118 21.9984 15.0118 21.1275 15.0118 20.2566Z" fill="black"/>
<path d="M8.78646 21.0629C8.78646 21.6757 8.78646 22.2886 8.78646 22.9015C8.78646 23.3337 8.58648 23.5337 8.15425 23.5337C7.47688 23.5401 6.79951 23.5401 6.12214 23.5337C5.71571 23.5272 5.49637 23.3208 5.49637 22.9208C5.48992 21.6757 5.48992 20.4307 5.49637 19.1792C5.49637 18.7921 5.71571 18.5856 6.10278 18.5856C6.79305 18.5792 7.47688 18.5792 8.16715 18.5856C8.59938 18.5856 8.78646 18.7856 8.78646 19.2243C8.78646 19.8372 8.78646 20.45 8.78646 21.0629Z" fill="black"/>
</svg>
