<svg width="4096" height="430" viewBox="0 0 4096 430" fill="none" xmlns="http://www.w3.org/2000/svg">
<path d="M1917.43 60H2016.13L2048 60.0001V430L1896.35 282.5H1718.49L1654.23 345L1591.52 284L1515.44 358H1307.76L1181.82 235.5L1007.55 405L901.655 302H394.795L263.197 430L189.173 358L129.028 416.5H0V99.5H90.4738L280.161 284L418.442 149.5L659.5 155L754 243L824.546 243L972.08 99.5H1127.84L1230.14 0L1411.6 176.5L1490.76 99.5H1718.49L1797.65 176.5L1917.43 60Z" fill="url(#paint0_linear_2403_1976)" fill-opacity="0.4"/>
<path d="M2178.57 60H2079.87L2048 60.0001V430L2199.65 282.5H2377.51L2441.77 345L2504.48 284L2580.56 358H2788.24L2914.18 235.5L3088.45 405L3194.35 302H3701.2L3832.8 430L3906.83 358L3966.97 416.5H4096V99.5H4005.53L3815.84 284L3677.56 149.5L3436.5 155L3342 243L3271.45 243L3123.92 99.5H2968.16L2865.86 0L2684.4 176.5L2605.24 99.5H2377.51L2298.35 176.5L2178.57 60Z" fill="url(#paint1_linear_2403_1976)" fill-opacity="0.4"/>
<defs>
<linearGradient id="paint0_linear_2403_1976" x1="2104.55" y1="19.0001" x2="205.322" y2="658.659" gradientUnits="userSpaceOnUse">
<stop stop-color="#5B59FF"/>
<stop offset="0.33" stop-color="#9A99FF"/>
<stop offset="0.69" stop-color="#D459FF"/>
<stop offset="1" stop-color="#8EADFF"/>
</linearGradient>
<linearGradient id="paint1_linear_2403_1976" x1="1991.45" y1="19.0001" x2="3890.68" y2="658.659" gradientUnits="userSpaceOnUse">
<stop stop-color="#5B59FF"/>
<stop offset="0.33" stop-color="#9A99FF"/>
<stop offset="0.69" stop-color="#D459FF"/>
<stop offset="1" stop-color="#8EADFF"/>
</linearGradient>
</defs>
</svg>
