<svg width="23" height="15" viewBox="0 0 23 15" fill="none" xmlns="http://www.w3.org/2000/svg">
<path d="M1.4007 1.39352C0.984348 1.80591 0.75 2.36575 0.75 2.95V4.9C0.75 5.13947 0.846067 5.36865 1.01628 5.53724C1.18642 5.70575 1.41667 5.8 1.65625 5.8C2.11286 5.8 2.55029 5.97968 2.87244 6.29876C3.1945 6.61776 3.375 7.04991 3.375 7.5C3.375 7.95009 3.1945 8.38224 2.87244 8.70124C2.55029 9.02032 2.11286 9.2 1.65625 9.2C1.41667 9.2 1.18642 9.29424 1.01628 9.46276C0.846067 9.63135 0.75 9.86053 0.75 10.1V12.05C0.75 12.6343 0.984347 13.1941 1.4007 13.6065C1.81698 14.0188 2.38107 14.25 2.96875 14.25H20.0312C20.6189 14.25 21.183 14.0188 21.5993 13.6065C22.0157 13.1941 22.25 12.6343 22.25 12.05V10.1C22.25 9.86053 22.1539 9.63135 21.9837 9.46276C21.8136 9.29424 21.5833 9.2 21.3438 9.2C20.8871 9.2 20.4497 9.02032 20.1276 8.70124C19.8055 8.38224 19.625 7.95009 19.625 7.5C19.625 7.04991 19.8055 6.61776 20.1276 6.29876C20.4497 5.97968 20.8871 5.8 21.3438 5.8C21.5833 5.8 21.8136 5.70575 21.9837 5.53724C22.1539 5.36864 22.25 5.13947 22.25 4.9V2.95C22.25 2.36575 22.0157 1.80591 21.5993 1.39352C21.183 0.98121 20.6189 0.75 20.0312 0.75H2.96875C2.38107 0.75 1.81698 0.98121 1.4007 1.39352ZM2.68064 2.668C2.75665 2.59272 2.86024 2.55 2.96875 2.55H20.0312C20.1398 2.55 20.2434 2.59272 20.3194 2.668C20.3953 2.7432 20.4375 2.84469 20.4375 2.95V4.11636C19.7205 4.30431 19.0792 4.71199 18.6071 5.28411C18.0913 5.90917 17.8092 6.692 17.8092 7.5C17.8092 8.308 18.0913 9.09083 18.6071 9.71589C19.0792 10.288 19.7205 10.6957 20.4375 10.8836V12.05C20.4375 12.1553 20.3953 12.2568 20.3194 12.332C20.2434 12.4073 20.1398 12.45 20.0312 12.45H2.96875C2.86024 12.45 2.75665 12.4073 2.68064 12.332C2.60471 12.2568 2.5625 12.1553 2.5625 12.05V10.8836C3.27952 10.6957 3.92083 10.288 4.39295 9.71589C4.90875 9.09083 5.19079 8.308 5.19079 7.5C5.19079 6.692 4.90875 5.90917 4.39295 5.28411C3.92083 4.71199 3.27952 4.30431 2.5625 4.11636V2.95C2.5625 2.84469 2.60471 2.7432 2.68064 2.668Z" fill="white" stroke="white" stroke-width="0.5"/>
</svg>
