<svg width="309" height="70" viewBox="0 0 309 70" fill="none" xmlns="http://www.w3.org/2000/svg">
<rect width="309" height="70" rx="8" fill="#010101"/>
<path d="M131.784 62.3932V58.7752C131.784 57.3879 130.94 56.4836 129.493 56.4836C128.769 56.4836 127.985 56.7248 127.442 57.5088C127.02 56.8454 126.417 56.4836 125.513 56.4836C124.91 56.4836 124.307 56.6644 123.824 57.3278V56.6042H122.558V62.3932H123.824V59.1971C123.824 58.1722 124.367 57.6896 125.211 57.6896C126.055 57.6896 126.478 58.2324 126.478 59.1971V62.3932H127.744V59.1971C127.744 58.1722 128.347 57.6896 129.131 57.6896C129.975 57.6896 130.397 58.2324 130.397 59.1971V62.3932H131.784ZM150.538 56.6042H148.488V54.8555H147.222V56.6042H146.076V57.7497H147.222V60.4033C147.222 61.7301 147.764 62.5138 149.212 62.5138C149.755 62.5138 150.357 62.333 150.78 62.0919L150.418 61.0063C150.056 61.2474 149.634 61.3079 149.332 61.3079C148.729 61.3079 148.488 60.9461 148.488 60.3429V57.7497H150.538V56.6042ZM161.272 56.4834C160.549 56.4834 160.066 56.8454 159.765 57.3278V56.6042H158.498V62.3932H159.765V59.1369C159.765 58.1722 160.187 57.6294 160.971 57.6294C161.212 57.6294 161.513 57.6898 161.755 57.75L162.116 56.5441C161.875 56.4836 161.513 56.4836 161.272 56.4836M145.051 57.0869C144.448 56.6647 143.604 56.4839 142.699 56.4839C141.252 56.4839 140.287 57.2075 140.287 58.3532C140.287 59.3182 141.011 59.8608 142.277 60.0418L142.88 60.1022C143.543 60.2226 143.905 60.4036 143.905 60.7052C143.905 61.1271 143.423 61.4287 142.578 61.4287C141.734 61.4287 141.071 61.1271 140.649 60.8258L140.046 61.7905C140.709 62.2729 141.614 62.5141 142.518 62.5141C144.206 62.5141 145.171 61.7304 145.171 60.6448C145.171 59.6196 144.387 59.0768 143.181 58.896L142.578 58.8356C142.036 58.7752 141.614 58.6549 141.614 58.2931C141.614 57.8709 142.036 57.6297 142.699 57.6297C143.423 57.6297 144.146 57.931 144.508 58.1121L145.051 57.0869ZM178.7 56.4839C177.976 56.4839 177.494 56.8457 177.192 57.3281V56.6045H175.926V62.3935H177.192V59.1372C177.192 58.1725 177.614 57.6297 178.398 57.6297C178.639 57.6297 178.941 57.6901 179.182 57.7503L179.544 56.5444C179.303 56.4839 178.941 56.4839 178.7 56.4839ZM162.539 59.499C162.539 61.2477 163.745 62.5141 165.614 62.5141C166.458 62.5141 167.061 62.3333 167.664 61.851L167.061 60.8258C166.579 61.1876 166.097 61.3683 165.554 61.3683C164.529 61.3683 163.805 60.6448 163.805 59.499C163.805 58.4137 164.529 57.6898 165.554 57.6297C166.097 57.6297 166.579 57.8104 167.061 58.1725L167.664 57.1473C167.061 56.6647 166.458 56.4839 165.614 56.4839C163.745 56.4839 162.539 57.7503 162.539 59.499ZM174.237 59.499V56.6045H172.971V57.3281C172.549 56.7855 171.946 56.4839 171.162 56.4839C169.534 56.4839 168.267 57.7503 168.267 59.499C168.267 61.2477 169.534 62.5141 171.162 62.5141C172.006 62.5141 172.609 62.2127 172.971 61.6699V62.3935H174.237V59.499ZM169.594 59.499C169.594 58.4738 170.257 57.6297 171.343 57.6297C172.368 57.6297 173.092 58.4137 173.092 59.499C173.092 60.5242 172.368 61.3683 171.343 61.3683C170.257 61.3079 169.594 60.5242 169.594 59.499ZM154.458 56.4839C152.77 56.4839 151.563 57.6898 151.563 59.499C151.563 61.3082 152.769 62.5141 154.518 62.5141C155.362 62.5141 156.207 62.2729 156.87 61.7304L156.267 60.8258C155.785 61.1876 155.182 61.4287 154.579 61.4287C153.795 61.4287 153.011 61.067 152.83 60.0415H157.111V59.5594C157.172 57.6898 156.087 56.4839 154.458 56.4839ZM154.458 57.5692C155.242 57.5692 155.785 58.0519 155.905 58.9565H152.89C153.011 58.1725 153.553 57.5692 154.458 57.5692ZM185.876 59.499V54.313H184.609V57.3281C184.187 56.7855 183.584 56.4839 182.8 56.4839C181.172 56.4839 179.906 57.7503 179.906 59.499C179.906 61.2477 181.172 62.5141 182.8 62.5141C183.644 62.5141 184.247 62.2127 184.609 61.6699V62.3935H185.876V59.499ZM181.232 59.499C181.232 58.4738 181.895 57.6297 182.981 57.6297C184.006 57.6297 184.73 58.4137 184.73 59.499C184.73 60.5242 184.006 61.3683 182.981 61.3683C181.895 61.3079 181.232 60.5242 181.232 59.499ZM138.9 59.499V56.6045H137.633V57.3281C137.211 56.7855 136.608 56.4839 135.824 56.4839C134.196 56.4839 132.93 57.7503 132.93 59.499C132.93 61.2477 134.196 62.5141 135.824 62.5141C136.669 62.5141 137.271 62.2127 137.633 61.6699V62.3935H138.9V59.499ZM134.196 59.499C134.196 58.4738 134.859 57.6297 135.945 57.6297C136.97 57.6297 137.694 58.4137 137.694 59.499C137.694 60.5242 136.97 61.3683 135.945 61.3683C134.859 61.3079 134.196 60.5242 134.196 59.499Z" fill="white"/>
<path d="M144.629 12.6431H163.624V46.7745H144.629V12.6431Z" fill="#FF5F00"/>
<path d="M145.835 29.709C145.835 22.7743 149.091 16.6233 154.096 12.6432C150.418 9.74872 145.775 8 140.709 8C128.709 8 119 17.7086 119 29.709C119 41.7095 128.709 51.4181 140.709 51.4181C145.774 51.4181 150.418 49.6694 154.096 46.7746C149.091 42.8549 145.835 36.6438 145.835 29.709Z" fill="#EB001B"/>
<path d="M189.253 29.709C189.253 41.7092 179.544 51.4181 167.544 51.4181C162.478 51.4181 157.835 49.6694 154.156 46.7746C159.222 42.7948 162.418 36.6438 162.418 29.709C162.418 22.7743 159.161 16.6233 154.156 12.6432C157.835 9.74872 162.478 8 167.544 8C179.544 8 189.253 17.7691 189.253 29.709Z" fill="#F79E1B"/>
</svg>
