<svg width="309" height="70" viewBox="0 0 309 70" fill="none" xmlns="http://www.w3.org/2000/svg">
<rect width="309" height="70" rx="8" fill="#006FCF"/>
<g clip-path="url(#clip0_10001_1860)">
<path d="M214 44.937V44.8369L213.963 44.9097C213.982 44.9188 213.991 44.9279 214 44.937Z" fill="white"/>
<path d="M199.592 43.1351L201.025 40.2505H193.21C190.804 40.2505 188.858 42.1796 188.858 44.5637C188.858 46.8386 190.713 48.6767 193.008 48.6767H196.737C197.425 48.6767 197.976 49.2227 197.976 49.9052C197.976 50.5877 197.425 51.1336 196.737 51.1336H189.335V54H197.297C199.445 54 201.181 52.2711 201.181 50.1509V49.5594C201.181 47.4301 199.436 45.7103 197.297 45.7103H193.44C192.724 45.7103 192.145 45.137 192.145 44.4272C192.145 43.7174 192.724 43.1442 193.44 43.1442H199.592V43.1351Z" fill="white"/>
<path d="M212.411 43.1351L213.844 40.2505H206.029C203.624 40.2505 201.677 42.1796 201.677 44.5637C201.677 46.8386 203.532 48.6767 205.827 48.6767H209.556C210.244 48.6767 210.795 49.2227 210.795 49.9052C210.795 50.5877 210.244 51.1336 209.556 51.1336H202.154V54H210.116C212.265 54 214 52.2711 214 50.1509V49.5594C214 47.4301 212.255 45.7103 210.116 45.7103H206.259C205.543 45.7103 204.964 45.137 204.964 44.4272C204.964 43.7174 205.543 43.1442 206.259 43.1442H212.411V43.1351Z" fill="white"/>
<path d="M132.236 40.2505L137.966 47.1935L132.457 54H136.552L139.876 49.5776L143.219 54H147.324L141.786 47.1935L147.324 40.2505H143.357L139.876 44.6365L136.424 40.2505H132.236Z" fill="white"/>
<path d="M170.933 48.9679C172.944 48.6221 174.789 47.2572 174.789 45.1461V44.7093C174.789 42.2433 172.778 40.2505 170.29 40.2505H162.237V54H165.708V48.977H167.186L171.465 54H175.432L170.933 48.9679ZM165.57 46.3745V43.1169H169.776C170.685 43.1169 171.419 43.8448 171.419 44.7457C171.419 45.6466 170.685 46.3745 169.776 46.3745H165.57Z" fill="white"/>
<path d="M155.845 49.5594C158.573 49.5594 160.299 47.2572 160.299 45.1461V44.7093C160.299 42.2433 158.288 40.2505 155.799 40.2505H147.746V54H151.208V49.5594H155.845ZM151.079 46.3745V43.1169H155.285C156.194 43.1169 156.929 43.8448 156.929 44.7457C156.929 45.6466 156.194 46.3745 155.285 46.3745H151.079Z" fill="white"/>
<path d="M120.409 40.2505V54H131.75V51.1336H123.917V48.4674H131.529V45.7194H123.871V43.1351H131.75V40.2505H120.409Z" fill="white"/>
<path d="M176.222 40.2505V54H187.563V51.1336H179.73V48.4674H187.342V45.7194H179.693V43.1351H187.563V40.2505H176.222Z" fill="white"/>
<path d="M189.978 29.7495H193.421V20.7864L199.399 29.7495H203.477V16H200.125V24.7902L194.321 16H189.978V29.7495Z" fill="white"/>
<path d="M111.988 29.7495H115.404V19.6307L119.243 29.7495H122.218L125.9 19.6307V29.7495H129.436V16H123.981L120.712 25.1815L117.342 16H111.988V29.7495Z" fill="white"/>
<path d="M154 24.7174C156.011 24.3716 157.856 23.0067 157.856 20.8956V20.4588C157.856 17.9928 155.845 16 153.357 16H145.303V29.7495H148.765V24.7174H150.244L154.523 29.7404H158.49L154 24.7174ZM148.646 22.124V18.8664H152.852C153.761 18.8664 154.495 19.5943 154.495 20.4952C154.495 21.3961 153.761 22.124 152.852 22.124H148.646Z" fill="white"/>
<path d="M131.832 16V29.7495H143.173V26.8831H135.34V24.217H142.953V21.4689H135.294V18.8846H143.173V16H131.832Z" fill="white"/>
<path d="M105.432 16H101.042L95 29.7495H98.7925L100.032 26.9104H106.405L107.645 29.7495H111.419L105.432 16ZM101.088 24.0623L103.182 18.9938L105.276 24.0623H101.088Z" fill="white"/>
<path d="M183.421 16H179.032L172.99 29.7495H176.782L178.022 26.9104H184.395L185.634 29.7495H189.408L183.421 16ZM179.078 24.0623L181.171 18.9938L183.265 24.0623H179.078Z" fill="white"/>
<path d="M162.879 16H159.39V29.7495H162.879V16Z" fill="white"/>
<path d="M171.3 29.7493L172.687 26.8648C172.687 26.8648 171.759 26.8648 171.08 26.8648C170.4 26.8648 168.123 26.3006 168.123 22.8791C168.123 19.849 170.171 19.1301 171.456 19.1301C172.742 19.1301 175.34 19.1301 175.34 19.1301V16.0908C175.34 16.0908 172.696 16.0908 170.749 16.0908C168.802 16.0908 164.661 17.1191 164.661 22.9155C164.661 29.0942 169.289 29.7493 170.088 29.7493C170.878 29.7493 171.3 29.7493 171.3 29.7493Z" fill="white"/>
</g>
<defs>
<clipPath id="clip0_10001_1860">
<rect width="119" height="38" fill="white" transform="translate(95 16)"/>
</clipPath>
</defs>
</svg>
