<svg width="309" height="70" viewBox="0 0 309 70" fill="none" xmlns="http://www.w3.org/2000/svg">
<rect width="309" height="70" rx="8" fill="#005CA9"/>
<path d="M181.798 25.3845H177.907C176.714 25.3845 175.833 25.7476 175.262 26.9407L167.792 43.9558H173.083C173.083 43.9558 174.017 41.6733 174.173 41.1545H180.657C180.864 41.777 181.279 43.9039 181.279 43.9039H186L181.798 25.4364V25.3845ZM175.625 37.3157C176.092 36.2264 177.648 32.1282 177.648 32.1282C177.648 32.232 178.115 31.0389 178.271 30.4164L178.634 32.0764L179.827 37.4714H175.625V37.3676V37.3157ZM168.155 37.8345C168.155 41.6733 164.679 44.2151 159.336 44.2151C157.054 44.2151 154.875 43.7483 153.682 43.2295L154.408 39.0276L155.031 39.287C156.691 40.0132 157.78 40.2726 159.751 40.2726C161.204 40.2726 162.76 39.702 162.76 38.457C162.76 37.627 162.138 37.1082 160.114 36.1745C158.195 35.2407 155.653 33.7882 155.653 31.1945C155.653 27.5632 159.181 25.0732 164.213 25.0732C166.132 25.0732 167.74 25.4364 168.778 25.9032L168.051 29.8976L167.688 29.5345C166.754 29.1714 165.613 28.8082 163.849 28.8082C161.93 28.912 161.048 29.742 161.048 30.4682C161.048 31.2982 162.138 31.9207 163.849 32.7507C166.754 34.0995 168.103 35.6557 168.103 37.8345H168.155ZM123.75 25.5401L123.854 25.177H131.687C132.776 25.177 133.606 25.5401 133.866 26.7332L135.578 34.9295C133.866 30.572 129.819 26.9926 123.75 25.5401Z" fill="#E8AD2C"/>
<path d="M182.116 25.3112H178.226C177.032 25.3112 176.151 25.6744 175.58 26.8675L168.11 43.8825H173.401C173.401 43.8825 174.335 41.6 174.491 41.0813H180.975C181.183 41.7038 181.598 43.8306 181.598 43.8306H186.318L182.116 25.3631V25.3112ZM175.943 37.2425C176.41 36.1531 177.966 32.055 177.966 32.055C177.966 32.1588 178.433 30.9656 178.589 30.3431L178.952 32.0031L180.145 37.3981H175.943V37.2944V37.2425ZM168.473 37.7613C168.473 41.6 164.997 44.1419 159.654 44.1419C157.372 44.1419 155.193 43.675 154 43.1563L154.726 38.9544L155.349 39.2138C157.009 39.94 158.098 40.1994 160.069 40.1994C161.522 40.1994 163.078 39.6288 163.078 38.3838C163.078 37.5538 162.456 37.035 160.433 36.1013C158.513 35.1675 155.971 33.715 155.971 31.1213C155.971 27.49 159.499 25 164.531 25C166.45 25 168.058 25.3631 169.096 25.83L168.369 29.8244L168.006 29.4613C167.073 29.0981 165.931 28.735 164.167 28.735C162.248 28.8388 161.366 29.6688 161.366 30.395C161.366 31.225 162.456 31.8475 164.167 32.6775C167.072 34.0263 168.421 35.5825 168.421 37.7613H168.473Z" fill="#FFFEFF"/>
<path d="M146.575 25.3845L138.638 43.852H133.243L128.678 28.3933C131.946 30.4683 134.696 33.7883 135.681 36.0189L136.252 37.9383L141.18 25.2808H146.575V25.3845ZM148.702 25.2808H153.682L150.517 43.852H145.537L148.702 25.2808Z" fill="white"/>
</svg>
