<svg width="33" height="24" viewBox="0 0 33 24" fill="none" xmlns="http://www.w3.org/2000/svg">
<path fill-rule="evenodd" clip-rule="evenodd" d="M33 21.2143V2.35714C33 1.056 31.944 0 30.6429 0C25.278 0 7.722 0 2.35714 0C1.056 0 0 1.056 0 2.35714V21.2143C0 22.5154 1.056 23.5714 2.35714 23.5714C7.722 23.5714 25.278 23.5714 30.6429 23.5714C31.944 23.5714 33 22.5154 33 21.2143ZM31.4286 2.35714V21.2143C31.4286 21.648 31.0766 22 30.6429 22H2.35714C1.92343 22 1.57143 21.648 1.57143 21.2143V2.35714C1.57143 1.92343 1.92343 1.57143 2.35714 1.57143H30.6429C31.0766 1.57143 31.4286 1.92343 31.4286 2.35714Z" fill="#4F4B5C"/>
<path fill-rule="evenodd" clip-rule="evenodd" d="M32.2143 6.28516H0.785714C0.352 6.28516 0 6.63716 0 7.07087C0 7.50458 0.352 7.85658 0.785714 7.85658H32.2143C32.648 7.85658 33 7.50458 33 7.07087C33 6.63716 32.648 6.28516 32.2143 6.28516ZM24.75 11.3923C22.5814 11.3923 20.8214 13.1523 20.8214 15.3209C20.8214 17.4894 22.5814 19.2494 24.75 19.2494C26.9186 19.2494 28.6786 17.4894 28.6786 15.3209C28.6786 13.1523 26.9186 11.3923 24.75 11.3923ZM24.75 12.9637C26.0511 12.9637 27.1071 14.0197 27.1071 15.3209C27.1071 16.622 26.0511 17.678 24.75 17.678C23.4489 17.678 22.3929 16.622 22.3929 15.3209C22.3929 14.0197 23.4489 12.9637 24.75 12.9637Z" fill="#4F4B5C"/>
<path fill-rule="evenodd" clip-rule="evenodd" d="M21.5616 16.6899C21.1342 17.287 20.4334 17.6783 19.6429 17.6783C18.3418 17.6783 17.2858 16.6223 17.2858 15.3211C17.2858 14.02 18.3418 12.964 19.6429 12.964C20.4334 12.964 21.1342 13.3553 21.5616 13.9524C21.8146 14.306 22.3049 14.3877 22.6585 14.1347C23.0105 13.8833 23.0922 13.3914 22.8408 13.0394C22.1274 12.0416 20.9598 11.3926 19.6429 11.3926C17.4744 11.3926 15.7144 13.1526 15.7144 15.3211C15.7144 17.4897 17.4744 19.2497 19.6429 19.2497C20.9598 19.2497 22.1274 18.6007 22.8408 17.6029C23.0922 17.2509 23.0105 16.759 22.6585 16.5076C22.3049 16.2546 21.8146 16.3363 21.5616 16.6899Z" fill="#4F4B5C"/>
</svg>
