<svg width="19" height="20" viewBox="0 0 19 20" fill="none" xmlns="http://www.w3.org/2000/svg">
<path d="M11.5004 8.5V14.5M7.00037 8.5V14.5M17.5 4L1 4.00001M16.0004 4V18.25C16.0004 18.4489 15.9213 18.6397 15.7807 18.7803C15.64 18.921 15.4493 19 15.2504 19H3.25037C3.05145 19 2.86069 18.921 2.72004 18.7803C2.57938 18.6397 2.50037 18.4489 2.50037 18.25V4M13.0004 4V2.5C13.0004 2.10218 12.8423 1.72064 12.561 1.43934C12.2797 1.15804 11.8982 1 11.5004 1H7.00037C6.60254 1 6.22101 1.15804 5.93971 1.43934C5.6584 1.72064 5.50037 2.10218 5.50037 2.5V4" stroke="#F5949F" stroke-width="1.5" stroke-linecap="round" stroke-linejoin="round"/>
</svg>
