<svg width="122" height="118" viewBox="0 0 122 118" fill="none" xmlns="http://www.w3.org/2000/svg">
<path d="M89.9003 23.2906L83.2331 18.6748C82.3415 18.0579 81.1185 18.2801 80.5012 19.1715C79.8838 20.0631 80.1065 21.2861 80.9979 21.9035L87.665 26.5193C88.5479 27.1305 89.786 26.9045 90.3967 26.0228C91.0139 25.1307 90.7916 23.9077 89.9003 23.2906Z" fill="#C2C0FF" fill-opacity="0.6"/>
<path d="M103.235 32.5216L96.5674 27.906C95.6758 27.2886 94.4531 27.5111 93.8355 28.4025C93.2178 29.2941 93.4401 30.5171 94.3317 31.1345C94.3317 31.1345 100.986 35.7409 100.999 35.7501C101.848 36.338 103.11 36.1496 103.731 35.2536C104.348 34.3622 104.126 33.139 103.235 32.5216Z" fill="#C2C0FF" fill-opacity="0.6"/>
<path d="M40.1644 30.4132L32.27 28.5606C31.2147 28.3132 30.158 28.9677 29.9099 30.0235C29.6622 31.0792 30.3172 32.1357 31.3728 32.3836L39.2671 34.2362C39.4181 34.2714 39.5686 34.2886 39.7177 34.2886C40.6084 34.2886 41.4149 33.6778 41.6275 32.7733C41.8749 31.7173 41.2199 30.6606 40.1644 30.4132Z" fill="#C2C0FF" fill-opacity="0.6"/>
<path d="M55.9537 34.1178L48.0593 32.2652C47.0038 32.0177 45.9473 32.6723 45.6992 33.728C45.4515 34.7838 46.1065 35.8403 47.1621 36.0879L55.0564 37.9405C55.2074 37.9758 55.3579 37.993 55.5071 37.993C56.3977 37.993 57.2042 37.3824 57.4168 36.4779C57.6642 35.4219 57.0092 34.3654 55.9537 34.1178Z" fill="#C2C0FF" fill-opacity="0.6"/>
<path d="M59.033 43.4201L41.1457 39.2227C40.0904 38.9753 39.0337 39.6298 38.7856 40.6856C38.5379 41.7413 39.1929 42.7978 40.2484 43.0455L56.2244 46.7944L43.3351 101.724L13.4996 94.7225L26.3887 39.7933L32.4622 41.2183C33.518 41.4659 34.5742 40.8109 34.8221 39.7554C35.07 38.6999 34.4148 37.6432 33.359 37.3955L25.3743 35.522C24.3212 35.2746 23.2626 35.9291 23.0145 36.9849L9.22812 95.7368C8.98046 96.7926 9.63547 97.8491 10.691 98.0967L44.349 105.995C44.4971 106.03 44.6479 106.047 44.7977 106.047C45.1604 106.047 45.5188 105.946 45.8321 105.752C46.2747 105.478 46.5901 105.039 46.7093 104.532L60.4959 45.78C60.7433 44.7243 60.0883 43.6678 59.033 43.4201Z" fill="#C2C0FF" fill-opacity="0.6"/>
<path d="M48.9607 65.5706C48.6312 64.7863 47.835 64.3039 46.9865 64.3749L39.6408 64.9909L36.7851 58.1953C36.4559 57.411 35.6576 56.9284 34.811 56.9996C33.9636 57.0706 33.2578 57.6796 33.0635 58.5077L31.3795 65.684L24.0339 66.3002C23.1865 66.3712 22.4807 66.9801 22.2864 67.808C22.0921 68.6361 22.4532 69.4952 23.1806 69.9357L29.4853 73.7548L27.8014 80.9313C27.6071 81.7594 27.9681 82.6186 28.6956 83.0591C29.01 83.2496 29.3621 83.3432 29.7123 83.3432C30.1728 83.3432 30.63 83.1816 30.9955 82.8662L36.5758 78.0503L42.8808 81.8695C43.6077 82.31 44.5365 82.2324 45.1807 81.6766C45.8246 81.1209 46.0372 80.2138 45.708 79.4299L42.8523 72.6341L48.4329 67.8181C49.0778 67.2619 49.2902 66.3547 48.9607 65.5706ZM38.6803 72.8399L39.7478 75.3801C39.7478 75.3801 37.3912 73.9528 37.3907 73.9523C35.7602 72.9645 34.1226 74.9808 33.0052 75.9453L33.6345 73.2632C33.8288 72.4351 33.4678 71.576 32.7403 71.1354L30.3837 69.7076C30.3837 69.7076 33.1256 69.4778 33.1293 69.4776C35.0356 69.3177 35.1699 66.7195 35.5059 65.2872C35.5059 65.2872 36.5709 67.8214 36.5732 67.827C37.3162 69.5947 39.8226 68.916 41.293 68.7927C40.1606 69.7706 37.9185 71.027 38.6803 72.8399Z" fill="#C2C0FF" fill-opacity="0.6"/>
<path d="M120.459 28.788C118.785 27.6297 118.219 25.3911 119.141 23.5809C119.587 22.7055 119.317 21.6351 118.509 21.0759L108.467 14.1239C107.659 13.5649 106.563 13.6886 105.899 14.4139C105.13 15.2566 104.029 15.7399 102.881 15.7399C102.05 15.7399 101.249 15.4889 100.562 15.0132C98.8887 13.8548 98.3223 11.6163 99.244 9.80606C99.69 8.93069 99.4197 7.86034 98.6121 7.30106L88.5709 0.349095C87.7628 -0.209951 86.6661 -0.086241 86.0036 0.639083C85.234 1.48177 84.1331 1.96461 82.9845 1.96508C82.154 1.96508 81.3525 1.71413 80.6657 1.23835C79.7748 0.621444 78.5514 0.843463 77.934 1.73483L66.5826 18.1308C66.3996 18.0135 66.1952 17.9239 65.9732 17.8716L54.0827 15.0818C53.1264 14.8572 52.1511 15.3746 51.8002 16.2924C51.0826 18.1694 49.005 19.2633 47.0531 18.8051C45.0724 18.3401 43.725 16.465 43.9195 14.4428C44.0136 13.4649 43.3701 12.5679 42.4136 12.3433L30.5233 9.55323C29.5673 9.32863 28.5919 9.84604 28.2408 10.7638C27.5235 12.6387 25.4439 13.7344 23.4937 13.2768C22.4394 13.0291 21.382 13.6841 21.1339 14.7396C21.1339 14.7396 18.194 27.2677 18.1914 27.279L0.939788 100.799C0.692134 101.855 1.34714 102.911 2.40267 103.159C4.3839 103.624 5.73107 105.499 5.53657 107.521C5.44249 108.499 6.08597 109.396 7.04225 109.621L18.9322 112.411C19.8904 112.635 20.8639 112.118 21.2148 111.2C22.8679 106.877 29.5374 108.458 29.096 113.05C29.0019 114.028 29.6454 114.925 30.6019 115.149L42.4919 117.939C43.4366 118.16 44.4275 117.636 44.7744 116.729C45.3739 115.16 46.9045 114.106 48.5833 114.106C49.4493 114.106 50.1932 114.476 51.0046 113.974C51.447 113.699 51.7626 113.26 51.8818 112.753L54.4637 101.751C54.4637 101.751 59.9999 105.583 60.0017 105.585C60.7823 106.125 61.9084 106.018 62.5693 105.295C63.3386 104.452 64.4393 103.969 65.588 103.969C66.4184 103.969 67.2202 104.221 67.9069 104.696C68.7985 105.313 70.0213 105.09 70.6387 104.199L120.955 31.5199C121.572 30.6286 121.35 29.4051 120.459 28.788ZM54.2572 85.4369C54.2572 85.4369 51.2983 98.0466 51.2981 98.0475L48.4509 110.181C45.7989 110.226 43.3491 111.607 41.9095 113.77L32.9785 111.674C32.5683 108.419 30.1628 105.64 26.8586 104.865C23.6311 104.108 20.1865 105.483 18.3502 108.242L9.41931 106.146C9.09051 103.538 7.48111 101.235 5.15462 100.025L21.5671 30.0824L23.4787 30.531C23.6295 30.5662 23.78 30.5834 23.9289 30.5834C24.8195 30.5834 25.626 29.9726 25.8386 29.0681C26.0862 28.0123 25.4312 26.9558 24.3755 26.7082L22.4643 26.2597L24.5639 17.3124C27.2159 17.2679 29.6654 15.8864 31.1052 13.7238L40.0363 15.8196C40.4464 19.0749 42.8517 21.8532 46.1559 22.6288C49.3829 23.3859 52.8287 22.0103 54.6643 19.2527L63.5954 21.3482C63.6208 21.3546 63.6775 21.8633 63.6888 21.9195C63.8055 22.4978 63.9931 23.0804 64.2391 23.6246C64.9774 25.2599 66.2651 26.6426 67.8599 27.4702L65.7599 36.4196L63.8483 35.9711C62.7948 35.7237 61.7365 36.3782 61.4884 37.434C61.2407 38.4898 61.8957 39.5462 62.9515 39.7939L64.8626 40.2424L61.7403 53.5489C61.7403 53.5489 61.3992 55.0024 61.399 55.0034L59.1064 64.7731C59.1061 64.7724 54.2572 85.4362 54.2572 85.4369ZM111.516 38.2558L109.902 37.1379C109.011 36.5205 107.787 36.7432 107.17 37.6344C106.553 38.526 106.775 39.749 107.667 40.3663L109.281 41.484L68.3888 100.548C67.4989 100.214 66.5529 100.042 65.587 100.042C63.9296 100.042 62.3221 100.557 60.9862 101.49L55.4271 97.6418L57.4222 89.1397L66.1054 95.1511C66.9873 95.7612 68.2265 95.5364 68.8371 94.6544L94.0854 58.1857C94.7028 57.2941 94.4805 56.0711 93.5891 55.4537C92.6975 54.8364 91.4745 55.0589 90.8572 55.9502L66.726 90.8051L58.386 85.0309L62.2142 68.717L69.1102 66.3014L73.5776 72.1647C73.9565 72.6619 74.5388 72.9382 75.1397 72.9382C75.3566 72.9382 75.5757 72.9025 75.7886 72.8277C76.5913 72.5466 77.1219 71.7806 77.1024 70.9299L76.9342 63.5607L83.8911 61.1239C84.6938 60.8429 85.2244 60.0769 85.2049 59.2264C85.1856 58.3762 84.6209 57.6349 83.806 57.3905L76.7453 55.2726L76.5772 47.903C76.5579 47.0525 75.9932 46.3115 75.1783 46.0671C74.3633 45.8227 73.4842 46.1311 73 46.8303L68.8046 52.8907L66.1164 52.0844L71.1709 30.5451L73.6448 26.9716L98.8414 44.4158L95.425 49.351C94.8077 50.2427 95.0299 51.4656 95.9213 52.083C96.8129 52.7004 98.0356 52.4777 98.6532 51.5865C98.6532 51.5865 103.172 45.0595 103.187 45.0377C103.794 44.1604 103.564 42.9106 102.691 42.3057C102.691 42.3057 74.3168 22.6618 74.2657 22.6262C73.3833 22.0152 72.1436 22.2417 71.5338 23.1227L70.6817 24.3537C70.6582 24.3474 70.6356 24.3391 70.6118 24.3335C69.6438 24.1056 68.7844 23.5225 68.212 22.7102C68.2077 22.7043 68.2042 22.698 68.2 22.6919L72.7159 16.1691C72.7159 16.1691 74.3297 17.2863 74.3297 17.2867C75.1872 17.8804 76.4441 17.6819 77.0617 16.79C77.679 15.8986 77.4568 14.6754 76.5654 14.0581L74.9513 12.9404L80.1822 5.38497C81.0721 5.71894 82.0183 5.89157 82.9842 5.89157C84.6416 5.89157 86.2489 5.37603 87.5848 4.44257L95.1261 9.66377C94.3156 12.8431 95.5356 16.3093 98.3263 18.2414C101.055 20.1306 104.762 20.1168 107.482 18.2174L115.023 23.4386C114.374 25.9857 115.028 28.7176 116.749 30.6965L111.516 38.2558ZM73.0395 64.9792C73.0395 64.9792 71.3701 62.7886 71.3694 62.7872C70.8604 62.1195 69.9503 61.8464 69.1586 62.1242L66.5583 63.0348C67.4142 61.7985 69.2698 60.0319 68.0741 58.4621L66.4043 56.2701C66.4043 56.2701 69.041 57.061 69.0438 57.0617C70.884 57.6135 71.9451 55.2538 72.7902 54.0334C72.7902 54.0334 72.853 56.7854 72.853 56.788C72.8967 58.7034 75.4784 58.9917 76.8909 59.4155L74.2904 60.3262C73.4877 60.6072 72.9571 61.3735 72.9767 62.2241L73.0395 64.9792Z" fill="#C2C0FF" fill-opacity="0.6"/>
</svg>
