<svg width="22" height="16" viewBox="0 0 22 16" fill="none" xmlns="http://www.w3.org/2000/svg">
<path d="M7.75 1V14.5" stroke="#909090" stroke-width="1.5" stroke-linecap="round" stroke-linejoin="round"/>
<path d="M1 11.4241C0.999968 11.2513 1.05968 11.0838 1.16902 10.95C1.27836 10.8162 1.43059 10.7244 1.59992 10.69C2.27749 10.5516 2.88645 10.1834 3.32379 9.64763C3.76113 9.11191 4 8.44157 4 7.75C4 7.05843 3.76113 6.38809 3.32379 5.85237C2.88645 5.31665 2.27749 4.94843 1.59992 4.81C1.43059 4.77562 1.27836 4.68376 1.16902 4.54997C1.05968 4.41618 0.999968 4.2487 1 4.07592V1.75C1 1.55109 1.07902 1.36032 1.21967 1.21967C1.36032 1.07902 1.55109 1 1.75 1H19.75C19.9489 1 20.1397 1.07902 20.2803 1.21967C20.421 1.36032 20.5 1.55109 20.5 1.75V4.07592C20.5 4.2487 20.4403 4.41618 20.331 4.54997C20.2216 4.68376 20.0694 4.77563 19.9001 4.81C19.2225 4.94843 18.6135 5.31665 18.1762 5.85237C17.7389 6.3881 17.5 7.05844 17.5 7.75C17.5 8.44157 17.7389 9.11191 18.1762 9.64763C18.6135 10.1834 19.2225 10.5516 19.9001 10.69C20.0694 10.7244 20.2216 10.8162 20.331 10.95C20.4403 11.0838 20.5 11.2513 20.5 11.4241V13.75C20.5 13.9489 20.421 14.1397 20.2803 14.2803C20.1397 14.421 19.9489 14.5 19.75 14.5H1.75C1.55109 14.5 1.36032 14.421 1.21967 14.2803C1.07902 14.1397 1 13.9489 1 13.75V11.4241Z" stroke="#909090" stroke-width="1.5" stroke-linecap="round" stroke-linejoin="round"/>
</svg>
