<svg width="41" height="35" viewBox="0 0 41 35" fill="none" xmlns="http://www.w3.org/2000/svg">
<path d="M20.5 34.3641C20.5 34.3641 0 23.43 0 10.153C0.000417276 7.80638 0.854139 5.5323 2.41602 3.71742C3.9779 1.90253 6.15152 0.658873 8.56734 0.197884C10.9832 -0.263105 13.492 0.0870311 15.6674 1.18876C17.8428 2.2905 19.5505 4.07582 20.5 6.24119L20.5 6.24121C21.4495 4.07583 23.1571 2.29051 25.3325 1.18877C27.5079 0.0870356 30.0168 -0.263103 32.4327 0.197884C34.8485 0.658872 37.0221 1.90253 38.584 3.71741C40.1459 5.5323 40.9996 7.80638 41 10.153C41 23.43 20.5 34.3641 20.5 34.3641Z" fill="white"/>
</svg>
