<svg width="45" height="14" viewBox="0 0 45 14" fill="none" xmlns="http://www.w3.org/2000/svg">
<path d="M5.46 11V7.122C5.46 6.674 5.31533 6.30533 5.026 6.016C4.746 5.72667 4.382 5.582 3.934 5.582C3.63533 5.582 3.36933 5.64733 3.136 5.778C2.90267 5.90867 2.72067 6.09067 2.59 6.324C2.45933 6.55733 2.394 6.82333 2.394 7.122L1.792 6.786C1.792 6.27267 1.904 5.82 2.128 5.428C2.352 5.02667 2.66 4.714 3.052 4.49C3.45333 4.25667 3.90133 4.14 4.396 4.14C4.9 4.14 5.348 4.252 5.74 4.476C6.132 4.7 6.44 5.01267 6.664 5.414C6.888 5.806 7 6.26333 7 6.786V11H5.46ZM0.854 11V0.92H2.394V11H0.854ZM9.38694 11V1.48H10.9269V11H9.38694ZM7.77694 5.68V4.28H16.5969V5.68H7.77694ZM13.4469 11V1.48H14.9869V11H13.4469ZM21.1145 11.14C20.6012 11.14 20.1438 11.0327 19.7425 10.818C19.3412 10.594 19.0238 10.2907 18.7905 9.908C18.5665 9.52533 18.4545 9.09133 18.4545 8.606V6.674C18.4545 6.18867 18.5712 5.75467 18.8045 5.372C19.0378 4.98933 19.3552 4.69067 19.7565 4.476C20.1578 4.252 20.6105 4.14 21.1145 4.14C21.7212 4.14 22.2672 4.29867 22.7525 4.616C23.2472 4.924 23.6345 5.344 23.9145 5.876C24.2038 6.39867 24.3485 6.99133 24.3485 7.654C24.3485 8.30733 24.2038 8.9 23.9145 9.432C23.6345 9.95467 23.2472 10.37 22.7525 10.678C22.2672 10.986 21.7212 11.14 21.1145 11.14ZM20.8625 9.684C21.2358 9.684 21.5625 9.6 21.8425 9.432C22.1318 9.25467 22.3558 9.012 22.5145 8.704C22.6825 8.396 22.7665 8.04133 22.7665 7.64C22.7665 7.23867 22.6825 6.884 22.5145 6.576C22.3558 6.268 22.1318 6.03 21.8425 5.862C21.5625 5.68467 21.2358 5.596 20.8625 5.596C20.4892 5.596 20.1578 5.68467 19.8685 5.862C19.5792 6.03 19.3552 6.268 19.1965 6.576C19.0378 6.884 18.9585 7.23867 18.9585 7.64C18.9585 8.04133 19.0378 8.396 19.1965 8.704C19.3552 9.012 19.5792 9.25467 19.8685 9.432C20.1578 9.6 20.4892 9.684 20.8625 9.684ZM17.5165 13.8V4.28H19.0565V6.086L18.7905 7.724L19.0565 9.348V13.8H17.5165ZM27.6356 11.14C27.2623 11.14 26.9029 11.0933 26.5576 11C26.2123 10.8973 25.8949 10.7573 25.6056 10.58C25.3163 10.3933 25.0643 10.1693 24.8496 9.908L25.8296 8.928C26.0629 9.19867 26.3289 9.404 26.6276 9.544C26.9356 9.67467 27.2809 9.74 27.6636 9.74C28.0089 9.74 28.2703 9.68867 28.4476 9.586C28.6249 9.48333 28.7136 9.334 28.7136 9.138C28.7136 8.93267 28.6296 8.774 28.4616 8.662C28.2936 8.55 28.0743 8.45667 27.8036 8.382C27.5423 8.298 27.2623 8.214 26.9636 8.13C26.6743 8.046 26.3943 7.934 26.1236 7.794C25.8623 7.64467 25.6476 7.444 25.4796 7.192C25.3116 6.94 25.2276 6.61333 25.2276 6.212C25.2276 5.78267 25.3256 5.414 25.5216 5.106C25.7269 4.798 26.0116 4.56 26.3756 4.392C26.7489 4.224 27.1923 4.14 27.7056 4.14C28.2469 4.14 28.7229 4.238 29.1336 4.434C29.5536 4.62067 29.9036 4.90533 30.1836 5.288L29.2036 6.268C29.0076 6.02533 28.7836 5.84333 28.5316 5.722C28.2796 5.60067 27.9903 5.54 27.6636 5.54C27.3556 5.54 27.1176 5.58667 26.9496 5.68C26.7816 5.77333 26.6976 5.90867 26.6976 6.086C26.6976 6.27267 26.7816 6.41733 26.9496 6.52C27.1176 6.62267 27.3323 6.71133 27.5936 6.786C27.8643 6.86067 28.1443 6.94467 28.4336 7.038C28.7323 7.122 29.0123 7.24333 29.2736 7.402C29.5443 7.55133 29.7636 7.75667 29.9316 8.018C30.0996 8.27 30.1836 8.60133 30.1836 9.012C30.1836 9.66533 29.9549 10.1833 29.4976 10.566C29.0403 10.9487 28.4196 11.14 27.6356 11.14ZM32.2892 11.14C31.9906 11.14 31.7432 11.042 31.5472 10.846C31.3606 10.6407 31.2672 10.3933 31.2672 10.104C31.2672 9.80533 31.3606 9.558 31.5472 9.362C31.7432 9.166 31.9906 9.068 32.2892 9.068C32.5879 9.068 32.8306 9.166 33.0172 9.362C33.2132 9.558 33.3112 9.80533 33.3112 10.104C33.3112 10.3933 33.2132 10.6407 33.0172 10.846C32.8306 11.042 32.5879 11.14 32.2892 11.14ZM32.2892 6.814C31.9906 6.814 31.7432 6.716 31.5472 6.52C31.3606 6.31467 31.2672 6.06733 31.2672 5.778C31.2672 5.47933 31.3606 5.232 31.5472 5.036C31.7432 4.84 31.9906 4.742 32.2892 4.742C32.5879 4.742 32.8306 4.84 33.0172 5.036C33.2132 5.232 33.3112 5.47933 33.3112 5.778C33.3112 6.06733 33.2132 6.31467 33.0172 6.52C32.8306 6.716 32.5879 6.814 32.2892 6.814ZM34.126 11.56L38.046 0.64H39.488L35.568 11.56H34.126ZM39.5451 11.56L43.4651 0.64H44.9071L40.9871 11.56H39.5451Z" fill="#7E7E7E"/>
</svg>
