<svg width="42" height="35" viewBox="0 0 42 35" fill="none" xmlns="http://www.w3.org/2000/svg">
<path d="M21 34.5914C21 34.5914 0.5 23.6573 0.5 10.3803C0.500417 8.03368 1.35414 5.7596 2.91602 3.94471C4.4779 2.12983 6.65152 0.886168 9.06734 0.425179C11.4832 -0.0358099 13.992 0.314326 16.1674 1.41606C18.3428 2.51779 20.0505 4.30311 21 6.46849L21 6.4685C21.9495 4.30312 23.6571 2.5178 25.8325 1.41607C28.0079 0.31433 30.5168 -0.0358082 32.9327 0.425179C35.3485 0.886167 37.5221 2.12982 39.084 3.94471C40.6459 5.75959 41.4996 8.03368 41.5 10.3803C41.5 23.6573 21 34.5914 21 34.5914Z" fill="white"/>
</svg>
