<svg width="43" height="40" viewBox="0 0 43 40" fill="none" xmlns="http://www.w3.org/2000/svg">
<path d="M26.1102 9.74951H23.1052V12.7545H26.1102V9.74951Z" fill="black"/>
<path d="M26.1102 16.6946H23.1052V19.6996H26.1102V16.6946Z" fill="black"/>
<path d="M9.34892 23.6394H6.34391V26.6444H9.34892V23.6394Z" fill="black"/>
<path d="M17.6962 16.6946H14.6912V19.6996H17.6962V16.6946Z" fill="black"/>
<path d="M17.6962 23.6394H14.6912V26.6444H17.6962V23.6394Z" fill="black"/>
<path d="M17.6962 9.74951H14.6912V12.7545H17.6962V9.74951Z" fill="black"/>
<path d="M9.34892 16.6946H6.34391V19.6996H9.34892V16.6946Z" fill="black"/>
<path d="M34.4575 9.74951H31.4525V12.7545H34.4575V9.74951Z" fill="black"/>
<path d="M21.1019 23.439C21.6361 22.9048 22.571 22.7712 23.3055 23.1051L27.8464 25.3756H40.7346V6.54419H0V28.4474C0 29.9833 1.26878 31.1853 2.7379 31.1853H21.7029V28.6477L20.5676 25.6427C20.3005 24.8414 20.5009 23.9733 21.1019 23.439ZM30.1169 9.08175C30.1169 8.68109 30.384 8.41397 30.7847 8.41397H35.1252C35.4591 8.41397 35.793 8.68109 35.793 9.08175V13.3555C35.793 13.7562 35.4591 14.0233 35.1252 14.0233H30.7847C30.384 14.0233 30.1169 13.7562 30.1169 13.3555V9.08175ZM30.1169 16.0267C30.1169 15.6928 30.384 15.3589 30.7847 15.3589H35.1252C35.4591 15.3589 35.793 15.6928 35.793 16.0267V20.3672C35.793 20.7679 35.4591 21.035 35.1252 21.035H30.7847C30.384 21.035 30.1169 20.7679 30.1169 20.3672V16.0267ZM21.7696 9.08175C21.7696 8.68109 22.1035 8.41397 22.4374 8.41397H26.7112C27.1119 8.41397 27.379 8.68109 27.379 9.08175V13.3555C27.379 13.7562 27.1119 14.0233 26.7112 14.0233H22.3706C22.0368 14.0233 21.7029 13.7562 21.7029 13.3555V9.08175H21.7696ZM21.7696 16.0267C21.7696 15.6928 22.1035 15.3589 22.4374 15.3589H26.7112C27.1119 15.3589 27.379 15.6928 27.379 16.0267V20.3672C27.379 20.7679 27.1119 21.035 26.7112 21.035H22.3706C22.0368 21.035 21.7029 20.7679 21.7029 20.3672V16.0267H21.7696ZM10.6177 27.3122C10.6177 27.7128 10.3506 27.9799 9.94993 27.9799H5.67613C5.27546 27.9799 5.00835 27.7128 5.00835 27.3122V22.9716C5.00835 22.5709 5.27546 22.3038 5.67613 22.3038H9.94993C10.3506 22.3038 10.6177 22.5709 10.6177 22.9716V27.3122ZM10.6177 20.3672C10.6177 20.7679 10.3506 21.035 9.94993 21.035H5.67613C5.27546 21.035 5.00835 20.7679 5.00835 20.3672V16.0267C5.00835 15.6928 5.27546 15.3589 5.67613 15.3589H9.94993C10.3506 15.3589 10.6177 15.6928 10.6177 16.0267V20.3672ZM19.0317 27.3122C19.0317 27.7128 18.7646 27.9799 18.364 27.9799H14.0234C13.6895 27.9799 13.3556 27.7128 13.3556 27.3122V22.9716C13.3556 22.5709 13.6895 22.3038 14.0234 22.3038H18.364C18.7646 22.3038 19.0317 22.5709 19.0317 22.9716V27.3122ZM19.0317 20.3672C19.0317 20.7679 18.7646 21.035 18.364 21.035H14.0234C13.6895 21.035 13.3556 20.7679 13.3556 20.3672V16.0267C13.3556 15.6928 13.6895 15.3589 14.0234 15.3589H18.364C18.7646 15.3589 19.0317 15.6928 19.0317 16.0267V20.3672ZM19.0317 13.4223C19.0317 13.823 18.7646 14.0901 18.364 14.0901H14.0234C13.6895 14.0901 13.3556 13.823 13.3556 13.4223V9.14853C13.3556 8.74786 13.6895 8.48075 14.0234 8.48075H18.364C18.7646 8.48075 19.0317 8.74786 19.0317 9.14853V13.4223Z" fill="black"/>
<path d="M34.4575 16.6946H31.4525V19.6996H34.4575V16.6946Z" fill="black"/>
<path d="M40.7346 2.7379C40.7346 1.202 39.5326 0 37.9967 0H2.7379C1.26878 0 0 1.202 0 2.7379V5.20869H40.7346V2.7379Z" fill="black"/>
<path d="M42.0702 26.711H27.5125L22.7045 24.307C22.4374 24.1735 22.1703 24.2403 21.97 24.4406C21.7696 24.6409 21.7029 24.908 21.7696 25.1751L22.9716 28.4473V39.3321C22.9716 39.666 23.2387 39.9999 23.6394 39.9999H42.0702C42.404 39.9999 42.7379 39.7328 42.7379 39.3321V27.3788C42.7379 26.9782 42.4708 26.711 42.0702 26.711ZM38.8648 35.9264H26.9783C26.6444 35.9264 26.3105 35.6593 26.3105 35.2586C26.3105 34.9247 26.5777 34.5908 26.9783 34.5908H38.8648C39.1987 34.5908 39.5326 34.858 39.5326 35.2586C39.5326 35.6593 39.1987 35.9264 38.8648 35.9264ZM38.8648 31.9865H26.9783C26.6444 31.9865 26.3105 31.7194 26.3105 31.3187C26.3105 30.9848 26.5777 30.6509 26.9783 30.6509H38.8648C39.1987 30.6509 39.5326 30.9181 39.5326 31.3187C39.5326 31.7194 39.1987 31.9865 38.8648 31.9865Z" fill="black"/>
</svg>
