<svg width="29" height="37" viewBox="0 0 29 37" fill="none" xmlns="http://www.w3.org/2000/svg">
<path d="M14.6923 19.7692C17.4962 19.7692 19.7692 17.4962 19.7692 14.6923C19.7692 11.8884 17.4962 9.61538 14.6923 9.61538C11.8884 9.61538 9.61538 11.8884 9.61538 14.6923C9.61538 17.4962 11.8884 19.7692 14.6923 19.7692Z" stroke="#777777" stroke-width="3" stroke-linecap="round" stroke-linejoin="round"/>
<path d="M27.3846 14.6923C27.3846 26.1154 14.6923 35 14.6923 35C14.6923 35 2 26.1154 2 14.6923C2 11.3261 3.33722 8.09776 5.71749 5.71749C8.09776 3.33722 11.3261 2 14.6923 2C18.0585 2 21.2869 3.33722 23.6671 5.71749C26.0474 8.09776 27.3846 11.3261 27.3846 14.6923Z" stroke="#777777" stroke-width="3" stroke-linecap="round" stroke-linejoin="round"/>
</svg>
