<svg width="611" height="111" viewBox="0 0 611 111" fill="none" xmlns="http://www.w3.org/2000/svg">
<circle cx="130.5" cy="51.5" r="28.5" fill="black"/>
<path d="M1 34C50 37 68 59.6842 68 111" stroke="url(#paint0_linear_2080_3129)" stroke-width="12"/>
<path d="M113 54C93 56.5 68.5 72.3173 68.5 111" stroke="black" stroke-width="12"/>
<path d="M218.766 110.4C213.866 110.4 209.366 109.4 205.266 107.4C201.166 105.3 197.816 102.55 195.216 99.15C192.616 95.65 191.116 91.75 190.716 87.45V56.7C191.116 52.4 192.616 48.6 195.216 45.3C197.816 41.9 201.166 39.25 205.266 37.35C209.366 35.45 213.866 34.5 218.766 34.5C225.666 34.5 231.766 36.15 237.066 39.45C242.466 42.75 246.666 47.25 249.666 52.95C252.766 58.65 254.316 65.15 254.316 72.45C254.316 79.75 252.766 86.25 249.666 91.95C246.666 97.65 242.466 102.15 237.066 105.45C231.766 108.75 225.666 110.4 218.766 110.4ZM214.716 89.7C217.916 89.7 220.716 88.95 223.116 87.45C225.616 85.95 227.566 83.9 228.966 81.3C230.366 78.7 231.066 75.75 231.066 72.45C231.066 69.05 230.366 66.05 228.966 63.45C227.566 60.85 225.616 58.85 223.116 57.45C220.716 55.95 217.916 55.2 214.716 55.2C211.516 55.2 208.666 55.95 206.166 57.45C203.666 58.85 201.716 60.85 200.316 63.45C199.016 66.05 198.366 69.05 198.366 72.45C198.366 75.85 199.066 78.85 200.466 81.45C201.866 84.05 203.766 86.1 206.166 87.6C208.666 89 211.516 89.7 214.716 89.7ZM176.766 108.9V0H199.716V53.85L195.966 71.55L199.416 89.25V108.9H176.766Z" fill="black"/>
<path d="M290.575 110.55C283.075 110.55 276.275 108.9 270.175 105.6C264.175 102.2 259.425 97.6 255.925 91.8C252.425 86 250.675 79.5 250.675 72.3C250.675 65.1 252.425 58.65 255.925 52.95C259.425 47.25 264.175 42.75 270.175 39.45C276.175 36.05 282.975 34.35 290.575 34.35C298.175 34.35 304.975 36 310.975 39.3C316.975 42.6 321.725 47.15 325.225 52.95C328.725 58.65 330.475 65.1 330.475 72.3C330.475 79.5 328.725 86 325.225 91.8C321.725 97.6 316.975 102.2 310.975 105.6C304.975 108.9 298.175 110.55 290.575 110.55ZM290.575 89.7C293.875 89.7 296.775 89 299.275 87.6C301.775 86.1 303.675 84.05 304.975 81.45C306.375 78.75 307.075 75.7 307.075 72.3C307.075 68.9 306.375 65.95 304.975 63.45C303.575 60.85 301.625 58.85 299.125 57.45C296.725 55.95 293.875 55.2 290.575 55.2C287.375 55.2 284.525 55.95 282.025 57.45C279.525 58.85 277.575 60.85 276.175 63.45C274.775 66.05 274.075 69.05 274.075 72.45C274.075 75.75 274.775 78.75 276.175 81.45C277.575 84.05 279.525 86.1 282.025 87.6C284.525 89 287.375 89.7 290.575 89.7Z" fill="black"/>
<path d="M363.801 110.55C357.101 110.55 351.151 109.2 345.951 106.5C340.851 103.7 336.851 99.9 333.951 95.1C331.051 90.2 329.601 84.6 329.601 78.3V36H352.551V78C352.551 80.5 352.951 82.65 353.751 84.45C354.651 86.25 355.951 87.65 357.651 88.65C359.351 89.65 361.401 90.15 363.801 90.15C367.201 90.15 369.901 89.1 371.901 87C373.901 84.8 374.901 81.8 374.901 78V36H397.851V78.15C397.851 84.55 396.401 90.2 393.501 95.1C390.601 99.9 386.601 103.7 381.501 106.5C376.401 109.2 370.501 110.55 363.801 110.55Z" fill="black"/>
<path d="M449.91 108.9V67.35C449.91 63.55 448.71 60.5 446.31 58.2C444.01 55.8 441.06 54.6 437.46 54.6C434.96 54.6 432.76 55.15 430.86 56.25C428.96 57.25 427.46 58.75 426.36 60.75C425.26 62.65 424.71 64.85 424.71 67.35L415.86 63C415.86 57.3 417.11 52.3 419.61 48C422.11 43.7 425.56 40.4 429.96 38.1C434.46 35.7 439.51 34.5 445.11 34.5C450.51 34.5 455.26 35.8 459.36 38.4C463.56 40.9 466.86 44.25 469.26 48.45C471.66 52.65 472.86 57.25 472.86 62.25V108.9H449.91ZM401.76 108.9V36H424.71V108.9H401.76Z" fill="black"/>
<path d="M512.35 110.55C504.85 110.55 498.05 108.9 491.95 105.6C485.85 102.3 481.05 97.75 477.55 91.95C474.05 86.15 472.3 79.65 472.3 72.45C472.3 65.15 474.05 58.65 477.55 52.95C481.15 47.15 486 42.6 492.1 39.3C498.2 36 505.05 34.35 512.65 34.35C518.35 34.35 523.55 35.35 528.25 37.35C533.05 39.25 537.3 42.15 541 46.05L526.3 60.75C524.6 58.85 522.6 57.45 520.3 56.55C518.1 55.65 515.55 55.2 512.65 55.2C509.35 55.2 506.4 55.95 503.8 57.45C501.3 58.85 499.3 60.85 497.8 63.45C496.4 65.95 495.7 68.9 495.7 72.3C495.7 75.7 496.4 78.7 497.8 81.3C499.3 83.9 501.35 85.95 503.95 87.45C506.55 88.95 509.45 89.7 512.65 89.7C515.65 89.7 518.3 89.2 520.6 88.2C523 87.1 525.05 85.6 526.75 83.7L541.3 98.4C537.5 102.4 533.2 105.45 528.4 107.55C523.6 109.55 518.25 110.55 512.35 110.55Z" fill="black"/>
<path d="M575.256 110.55C567.356 110.55 560.306 108.95 554.106 105.75C548.006 102.45 543.206 97.9 539.706 92.1C536.206 86.3 534.456 79.75 534.456 72.45C534.456 65.15 536.156 58.65 539.556 52.95C543.056 47.15 547.756 42.6 553.656 39.3C559.556 36 566.206 34.35 573.606 34.35C580.806 34.35 587.156 35.9 592.656 39C598.156 42.1 602.456 46.4 605.556 51.9C608.756 57.4 610.356 63.7 610.356 70.8C610.356 72.1 610.256 73.5 610.056 75C609.956 76.4 609.706 78.05 609.306 79.95L546.456 80.1V64.35L599.556 64.2L589.656 70.8C589.556 66.6 588.906 63.15 587.706 60.45C586.506 57.65 584.706 55.55 582.306 54.15C580.006 52.65 577.156 51.9 573.756 51.9C570.156 51.9 567.006 52.75 564.306 54.45C561.706 56.05 559.656 58.35 558.156 61.35C556.756 64.35 556.056 68 556.056 72.3C556.056 76.6 556.806 80.3 558.306 83.4C559.906 86.4 562.106 88.75 564.906 90.45C567.806 92.05 571.206 92.85 575.106 92.85C578.706 92.85 581.956 92.25 584.856 91.05C587.756 89.75 590.306 87.85 592.506 85.35L605.106 97.95C601.506 102.15 597.156 105.3 592.056 107.4C586.956 109.5 581.356 110.55 575.256 110.55Z" fill="black"/>
<defs>
<linearGradient id="paint0_linear_2080_3129" x1="70" y1="111" x2="-4.5" y2="50.5" gradientUnits="userSpaceOnUse">
<stop offset="0.02"/>
<stop offset="0.265"/>
<stop offset="1" stop-opacity="0"/>
</linearGradient>
</defs>
</svg>
