<svg width="36" height="40" viewBox="0 0 36 40" fill="none" xmlns="http://www.w3.org/2000/svg">
<path d="M8.49728 18.1966C11.277 14.8703 13.2134 10.9974 14.0255 6.70288C18.8197 11.4971 23.6296 16.307 28.4238 21.1012C24.1605 21.9133 20.3345 23.8965 16.9926 26.6919C14.1504 23.8497 11.3551 21.0387 8.49728 18.1966Z" fill="black"/>
<path d="M6.76386 20.1328C9.54358 22.9125 12.2608 25.6298 15.0249 28.3939C14.9469 28.472 14.8375 28.6438 14.697 28.7843C12.9792 30.5177 11.2458 32.2511 9.51235 33.9689C7.87263 35.5931 5.8425 35.6087 4.20277 34.0002C3.18771 33.0007 2.17264 31.9857 1.17319 30.9706C-0.388451 29.3933 -0.388451 27.3476 1.15757 25.7703C3.01593 23.8808 4.88989 22.0068 6.76386 20.1328ZM6.7014 29.5807C7.01373 29.487 7.21674 29.5027 7.31044 29.409C8.07564 28.675 8.87208 27.9722 9.54358 27.1602C9.91838 26.7073 9.66852 26.1451 9.21564 25.786C8.74715 25.4268 8.21619 25.4268 7.77893 25.8016C7.13866 26.3638 6.49838 26.9572 5.98304 27.6287C5.76441 27.9254 5.73318 28.5344 5.87373 28.9092C5.98304 29.2059 6.45154 29.3933 6.7014 29.5807Z" fill="black"/>
<path d="M34.8266 18.3681C34.7641 19.1802 34.3737 19.8829 33.5773 20.3046C32.7808 20.7418 31.9688 20.695 31.2036 20.2109C30.9381 20.0391 30.7195 19.8204 30.5008 19.6018C25.5036 14.6046 20.4907 9.5917 15.4935 4.59445C14.7595 3.86048 14.3222 3.06404 14.6346 2.01774C15.103 0.424868 16.9458 -0.199788 18.2732 0.784046C18.4606 0.924594 18.6324 1.08076 18.7885 1.25254C23.817 6.2654 28.8299 11.2939 33.8584 16.3068C34.4205 16.8689 34.8266 17.4624 34.8266 18.3681Z" fill="black"/>
<path d="M20.0066 34.8277C20.4594 35.2494 20.9279 35.6242 21.334 36.0614C22.1773 36.9828 22.1616 38.3571 21.3183 39.2472C20.4438 40.1686 19.0384 40.2779 18.0858 39.3877C16.4304 37.8417 14.8219 36.2488 13.1978 34.6872C13.026 34.531 12.823 34.4061 12.6981 34.2968C13.8537 33.1412 14.9312 32.0636 16.1337 30.8456C16.7584 31.6108 17.4455 32.4228 18.1638 33.313C18.9134 32.5634 19.4756 32.0324 19.991 31.4702C20.4594 30.9393 20.4282 30.3614 19.9441 29.8617C19.5225 29.4088 19.0384 29.0028 18.4918 28.4875C19.1633 27.9721 19.7567 27.5193 20.3814 27.0352C21.6307 28.0971 22.7863 29.159 22.6614 30.9705C22.5208 32.7195 21.0685 33.5784 20.0066 34.8277Z" fill="black"/>
<path d="M33.1087 3.40763C32.8589 3.82927 32.734 4.17283 32.4997 4.42269C31.8126 5.15667 31.0786 5.87502 30.3603 6.57776C29.7825 7.13995 29.1266 7.15557 28.6268 6.67146C28.1427 6.18735 28.1427 5.50023 28.6893 4.93804C29.4233 4.17283 30.1572 3.37639 30.9693 2.70489C31.266 2.45503 31.8594 2.36133 32.2342 2.47064C32.5622 2.59557 32.7964 3.06407 33.1087 3.40763Z" fill="black"/>
<path d="M23.5827 2.26761C23.5827 1.8772 23.5515 1.48678 23.5827 1.09637C23.6452 0.440485 24.0356 0.050075 24.6915 0.00322575C25.3005 -0.0436235 25.8627 0.424869 25.894 1.08076C25.9408 1.90843 25.9408 2.75171 25.894 3.57938C25.8627 4.25089 25.3161 4.70376 24.7071 4.68815C24.0825 4.67253 23.614 4.20404 23.5671 3.53253C23.5671 3.11089 23.5827 2.68925 23.5827 2.26761Z" fill="black"/>
<path d="M32.9057 11.7155C32.5153 11.7155 32.1249 11.7467 31.7345 11.7155C31.063 11.6687 30.6101 11.1689 30.6101 10.5443C30.6101 9.91962 31.0786 9.41989 31.7501 9.38866C32.5622 9.35743 33.3586 9.35743 34.1707 9.38866C34.8266 9.41989 35.3107 9.95085 35.2951 10.5599C35.2951 11.1689 34.8266 11.6687 34.1551 11.7155C33.7334 11.7311 33.3118 11.7155 32.9057 11.7155Z" fill="black"/>
</svg>
