<svg width="20" height="17" viewBox="0 0 20 17" fill="none" xmlns="http://www.w3.org/2000/svg">
<path d="M12.25 10H16M3.72894 12.25C3.8954 11.606 4.27109 11.0355 4.79698 10.6283C5.32287 10.221 5.96916 10 6.63431 9.99999M6.63431 9.99999C7.29946 9.99997 7.94577 10.2209 8.47169 10.6281C8.99761 11.0354 9.37334 11.6058 9.53984 12.2497M6.63431 9.99999C7.87695 9.99999 8.88442 8.99264 8.88442 7.75C8.88442 6.50735 7.87706 5.5 6.63442 5.5C5.39177 5.5 4.38442 6.50735 4.38442 7.75C4.38442 8.99264 5.39167 9.99999 6.63431 9.99999ZM12.25 7H16M1.75 1H18.25C18.6642 1 19 1.33579 19 1.75V15.25C19 15.6642 18.6642 16 18.25 16H1.75C1.33579 16 1 15.6642 1 15.25V1.75C1 1.33579 1.33579 1 1.75 1Z" stroke="#8897AE" stroke-linecap="round" stroke-linejoin="round"/>
</svg>
