<svg width="19" height="19" viewBox="0 0 19 19" fill="none" xmlns="http://www.w3.org/2000/svg">
<path d="M10 3.68934L15.25 8.93934M6.25 17.9393H1.75C1.55109 17.9393 1.36032 17.8603 1.21967 17.7197C1.07902 17.579 1 17.3883 1 17.1893V13C1 12.9015 1.0194 12.804 1.05709 12.713C1.09478 12.622 1.15003 12.5393 1.21967 12.4697L12.4697 1.21967C12.6103 1.07902 12.8011 1 13 1C13.1989 1 13.3897 1.07902 13.5303 1.21967L17.7197 5.40901C17.8603 5.54966 17.9393 5.74043 17.9393 5.93934C17.9393 6.13825 17.8603 6.32902 17.7197 6.46967L6.25 17.9393Z" stroke="#909090" stroke-width="1.5" stroke-linecap="round" stroke-linejoin="round"/>
</svg>
