<svg width="27" height="29" viewBox="0 0 27 29" fill="none" xmlns="http://www.w3.org/2000/svg">
<path d="M15.625 17.3121L17.875 15.6246V22.9371M8.3125 15.6245H12.25L10 18.437C10.37 18.437 10.7342 18.5283 11.0605 18.7026C11.3868 18.877 11.665 19.1291 11.8706 19.4367C12.0762 19.7443 12.2028 20.0978 12.2391 20.466C12.2755 20.8341 12.2205 21.2056 12.079 21.5474C11.9375 21.8893 11.7139 22.191 11.428 22.4258C11.1422 22.6606 10.8028 22.8213 10.44 22.8936C10.0771 22.9659 9.70209 22.9477 9.34801 22.8405C8.99392 22.7333 8.67174 22.5404 8.40998 22.279M1 10H25.75M20.125 1V5.5M6.625 1V5.5M2.125 3.25H24.625C25.2463 3.25 25.75 3.75368 25.75 4.375V26.875C25.75 27.4963 25.2463 28 24.625 28H2.125C1.50368 28 1 27.4963 1 26.875V4.375C1 3.75368 1.50368 3.25 2.125 3.25Z" stroke="#6C6C6C" stroke-width="2" stroke-linecap="round" stroke-linejoin="round"/>
</svg>
