<svg width="25" height="25" viewBox="0 0 25 25" fill="none" xmlns="http://www.w3.org/2000/svg">
<path d="M13.5 5.79167C13.5 5.23938 13.0523 4.79167 12.5 4.79167C11.9477 4.79167 11.5 5.23938 11.5 5.79167H13.5ZM12.5 12.5H11.5C11.5 13.0523 11.9477 13.5 12.5 13.5V12.5ZM19.2083 13.5C19.7606 13.5 20.2083 13.0523 20.2083 12.5C20.2083 11.9477 19.7606 11.5 19.2083 11.5V13.5ZM23 12.5C23 18.299 18.299 23 12.5 23V25C19.4036 25 25 19.4036 25 12.5H23ZM12.5 23C6.70101 23 2 18.299 2 12.5H0C0 19.4036 5.59644 25 12.5 25V23ZM2 12.5C2 6.70101 6.70101 2 12.5 2V0C5.59644 0 0 5.59644 0 12.5H2ZM12.5 2C18.299 2 23 6.70101 23 12.5H25C25 5.59644 19.4036 0 12.5 0V2ZM11.5 5.79167V12.5H13.5V5.79167H11.5ZM12.5 13.5H19.2083V11.5H12.5V13.5Z" fill="#6C6C6C"/>
</svg>
