<svg width="24" height="30" viewBox="0 0 24 30" fill="none" xmlns="http://www.w3.org/2000/svg">
<path d="M11.7692 16.0769C14.1483 16.0769 16.0769 14.1483 16.0769 11.7692C16.0769 9.39016 14.1483 7.46154 11.7692 7.46154C9.39016 7.46154 7.46154 9.39016 7.46154 11.7692C7.46154 14.1483 9.39016 16.0769 11.7692 16.0769Z" stroke="#777777" stroke-width="2" stroke-linecap="round" stroke-linejoin="round"/>
<path d="M22.5385 11.7692C22.5385 21.4615 11.7692 29 11.7692 29C11.7692 29 1 21.4615 1 11.7692C1 8.91305 2.13461 6.17386 4.15423 4.15423C6.17386 2.13461 8.91305 1 11.7692 1C14.6254 1 17.3646 2.13461 19.3842 4.15423C21.4038 6.17386 22.5385 8.91305 22.5385 11.7692Z" stroke="#777777" stroke-width="2" stroke-linecap="round" stroke-linejoin="round"/>
</svg>
