<svg width="26" height="27" viewBox="0 0 26 27" fill="none" xmlns="http://www.w3.org/2000/svg">
<path d="M26 13.8676C26 21.0043 20.1797 26.7897 13 26.7897C5.8203 26.7897 0 21.0043 0 13.8676C0 6.73097 5.8203 0.945557 13 0.945557C20.1797 0.945557 26 6.73097 26 13.8676Z" fill="#7E79FF"/>
<path d="M12.07 17.2377L11.238 13.7167C11.7407 13.5913 12.2173 13.4479 12.668 13.2867C13.1187 13.1075 13.5347 12.9193 13.916 12.7222C14.2973 12.5251 14.618 12.3011 14.878 12.0503C15.1553 11.7815 15.372 11.4948 15.528 11.1902C15.684 10.8676 15.762 10.5272 15.762 10.1688C15.762 9.81045 15.6753 9.50583 15.502 9.25497C15.3287 8.98619 15.0947 8.78013 14.8 8.63678C14.5053 8.49343 14.1587 8.42175 13.76 8.42175C13.188 8.42175 12.616 8.63678 12.044 9.06682C11.472 9.47895 10.9433 10.1509 10.458 11.0827L7.624 8.368C8.404 7.13161 9.33133 6.17297 10.406 5.49206C11.498 4.81115 12.6333 4.4707 13.812 4.4707C14.956 4.4707 15.9873 4.7126 16.906 5.1964C17.8247 5.66229 18.5527 6.31632 19.09 7.15849C19.6273 7.98275 19.896 8.91452 19.896 9.95379C19.896 10.6168 19.7573 11.2708 19.48 11.9159C19.22 12.561 18.8473 13.1702 18.362 13.7436C17.894 14.2991 17.3393 14.7918 16.698 15.2219C16.0567 15.6519 15.346 15.9834 14.566 16.2164L14.306 17.2377H12.07ZM11.134 21.5919C11.134 20.8752 11.342 20.2928 11.758 19.8449C12.174 19.3969 12.7113 19.1729 13.37 19.1729C14.0807 19.1729 14.6353 19.3879 15.034 19.818C15.4327 20.2301 15.632 20.8214 15.632 21.5919C15.632 22.2908 15.424 22.8642 15.008 23.3121C14.592 23.7601 14.046 23.9841 13.37 23.9841C12.6593 23.9841 12.1047 23.778 11.706 23.3659C11.3247 22.9538 11.134 22.3624 11.134 21.5919Z" fill="white"/>
</svg>
