<svg width="57" height="40" viewBox="0 0 57 40" fill="none" xmlns="http://www.w3.org/2000/svg">
<path fill-rule="evenodd" clip-rule="evenodd" d="M1.17993 13.7772L37.0004 0.10703C37.4722 -0.0543797 37.9565 -0.0295475 38.391 0.156694C38.8132 0.342936 39.1732 0.690587 39.3471 1.1624L42.4138 9.20804H39.3346C39.3346 11.2319 37.3108 13.2433 35.2994 13.2433V14.1372H10.7776C10.7776 14.1372 10.7652 14.1372 10.7652 14.1497C10.7652 14.1497 10.7652 14.1497 10.7652 14.1621V15.6023H35.2994V20.5315C35.2994 21.1151 35.3367 21.6862 35.3987 22.245H10.7652V38.1624C10.7652 38.1748 10.7652 38.1748 10.7652 38.1748C10.7652 38.1872 10.7776 38.1872 10.7776 38.1872H49.1185C49.131 38.1872 49.131 38.1748 49.131 38.1748C49.1434 38.1748 49.1434 38.1748 49.1434 38.1624V32.7614C49.7642 32.302 50.3726 31.8054 50.9437 31.2839V38.1748C50.9437 38.6715 50.7451 39.1309 50.4098 39.4661C50.0746 39.8013 49.6276 40 49.1185 40H10.7776C10.3058 40 9.88363 39.8262 9.56081 39.5282C9.16349 39.3295 8.84067 38.9943 8.67926 38.5597C5.98497 31.0604 2.89336 23.6107 0.112146 16.1114C-0.0616792 15.652 -0.0244309 15.1554 0.161811 14.7332C0.360469 14.3111 0.70812 13.9634 1.17993 13.7772Z" fill="#010101"/>
<path fill-rule="evenodd" clip-rule="evenodd" d="M14.7756 25.5476H18.4011C18.8108 25.5476 19.146 25.8828 19.146 26.2802V29.9181C19.146 30.3154 18.8108 30.6506 18.4011 30.6506H14.7756C14.3782 30.6506 14.043 30.3154 14.043 29.9181V26.2802C14.043 25.8828 14.3782 25.5476 14.7756 25.5476Z" fill="#010101"/>
<path d="M14.7756 24.6536H18.4011C18.8605 24.6536 19.2702 24.8274 19.5682 25.1254C19.8662 25.4234 20.04 25.8331 20.04 26.2801V29.918C20.04 30.365 19.8662 30.7623 19.5682 31.0727C19.2702 31.3707 18.8605 31.5445 18.4011 31.5445H14.7756C14.3286 31.5445 13.9188 31.3707 13.6209 31.0727C13.596 31.0479 13.5836 31.023 13.5588 30.9982C13.298 30.7002 13.149 30.3277 13.149 29.9304V26.2925C13.149 25.8455 13.3229 25.4358 13.6209 25.1378C13.9188 24.8398 14.3286 24.6536 14.7756 24.6536ZM18.2397 26.4539H14.9494V29.7442H18.2397V26.4539Z" fill="#010101"/>
<path d="M14.043 34.4001C13.6457 34.4001 13.2856 34.6733 13.1739 35.0458C13.0249 35.6169 13.447 36.2005 14.043 36.2005H17.6437C18.0534 36.2005 18.4135 35.9273 18.5128 35.5548C18.6742 34.9837 18.2521 34.4001 17.6437 34.4001H14.043ZM26.6702 36.2129C27.0675 36.2129 27.4276 35.9397 27.5393 35.5673C27.7007 34.9961 27.2662 34.4126 26.6702 34.4126H23.0695C22.6722 34.4126 22.3121 34.6857 22.2004 35.0582C22.039 35.6293 22.4735 36.2129 23.0695 36.2129H26.6702Z" fill="#010101"/>
<path d="M35.2994 12.3492C36.0692 12.3492 36.8514 11.9519 37.435 11.3559C38.0309 10.7599 38.4407 9.97772 38.4407 9.22034C38.4407 8.7237 38.838 8.31396 39.3346 8.31396H51.937C52.4336 8.31396 52.8434 8.7237 52.8434 9.22034C52.8434 9.97772 53.2407 10.7475 53.8367 11.3559C54.4326 11.9519 55.2148 12.3492 55.9722 12.3492C56.4689 12.3492 56.8786 12.7589 56.8786 13.2556V20.5563C56.8786 23.8838 55.8108 26.7271 54.085 29.1482C52.0611 31.9418 49.1806 34.1146 46.0642 35.7412C45.7786 35.8901 45.4682 35.8777 45.2199 35.7412C42.1034 34.1146 39.2105 31.9294 37.2115 29.1482C35.4732 26.7271 34.4179 23.8838 34.4179 20.5563V13.2556C34.4054 12.7589 34.8028 12.3492 35.2994 12.3492ZM38.7138 12.6348C38.0185 13.3301 37.137 13.8516 36.2058 14.0502V20.5563C36.2058 23.4865 37.137 25.9821 38.6642 28.0928C40.4024 30.514 42.9105 32.4509 45.642 33.916C48.3736 32.4509 50.8816 30.5016 52.6199 28.0928C54.1346 25.9821 55.0783 23.474 55.0783 20.5563V14.0502C54.1471 13.8516 53.2655 13.3177 52.5702 12.6348C51.8749 11.9271 51.3534 11.0455 51.1548 10.1143H40.1541C39.9182 11.0455 39.4091 11.9271 38.7138 12.6348Z" fill="#010101"/>
<path fill-rule="evenodd" clip-rule="evenodd" d="M38.3538 15.5279V20.5564C38.3538 25.5229 41.6564 29.049 45.642 31.4578C49.6276 29.0615 52.9427 25.5229 52.9427 20.5564V15.5279C51.5521 14.8078 50.385 13.6406 49.6773 12.2625H41.6316C40.8991 13.6406 39.7319 14.8202 38.3538 15.5279ZM48.7585 18.4829C49.0937 18.1104 49.6648 18.0732 50.0249 18.4084C50.3974 18.7437 50.4346 19.3148 50.0994 19.6873L45.1205 25.2373C44.7853 25.6098 44.2142 25.647 43.8417 25.3118C43.8169 25.287 43.792 25.2621 43.7796 25.2373L41.1722 22.3443C40.837 21.9843 40.8742 21.4131 41.2467 21.0779C41.6192 20.7427 42.1779 20.7675 42.5132 21.14L44.4252 23.288L48.7585 18.4829Z" fill="#010101"/>
<path d="M39.2477 16.0492V20.5439C39.2477 22.6422 39.8809 24.455 40.9363 26.0194C42.1034 27.7576 43.7672 29.2103 45.642 30.3899C47.5044 29.2103 49.1806 27.7576 50.3477 26.0194C51.3907 24.455 52.0363 22.6422 52.0363 20.5439V16.0492C51.4528 15.6892 50.894 15.2546 50.4098 14.7704L50.3726 14.7207C49.9007 14.2489 49.491 13.7274 49.1434 13.1563H42.1407C41.7806 13.7399 41.3585 14.2862 40.8742 14.7704C40.39 15.267 39.8313 15.7016 39.2477 16.0492ZM37.4474 20.5563V15.5278C37.4474 15.1925 37.6212 14.8945 37.9316 14.7207C38.54 14.4103 39.1111 13.9882 39.5954 13.5039C40.0672 13.0321 40.4769 12.4858 40.7997 11.8899C40.9363 11.567 41.2467 11.356 41.6192 11.356H49.6648C49.9877 11.356 50.2981 11.5298 50.4595 11.8402C50.7699 12.4237 51.1796 12.9825 51.6514 13.4543L51.6887 13.5039C52.1729 13.9758 52.7192 14.3855 53.3276 14.7083C53.638 14.8449 53.8367 15.1677 53.8367 15.5278V20.5563C53.8367 23.0395 53.0793 25.1875 51.8377 27.0251C50.4222 29.1482 48.3736 30.8617 46.1262 32.215C45.8407 32.3889 45.4806 32.4013 45.1826 32.2274C42.9229 30.8741 40.8618 29.1607 39.4464 27.0251C38.2048 25.1627 37.4474 23.0271 37.4474 20.5563Z" fill="#010101"/>
</svg>
