<svg width="21" height="18" viewBox="0 0 21 18" fill="none" xmlns="http://www.w3.org/2000/svg">
<path d="M19.8101 0.0672838L0.606302 8.08822C0.22229 8.2494 -0.0164184 8.62089 0.000881056 9.03356C0.0181787 9.44965 0.286867 9.79714 0.685861 9.92288L8.28166 12.3405L8.52382 16.674C8.54689 17.1244 8.84209 17.5108 9.27685 17.6571C9.39793 17.6982 9.51901 17.7188 9.64011 17.7188C9.95607 17.7188 10.2628 17.5839 10.4819 17.3359L12.3708 15.1766L15.934 17.7542C16.1589 17.9154 16.4206 18 16.6893 18C16.8485 18 17.0076 17.9703 17.1645 17.9097C17.575 17.7485 17.8702 17.3942 17.9532 16.9621L20.9851 1.00243C21.0439 0.694939 20.9263 0.381739 20.6806 0.186263C20.4327 -0.00805932 20.0995 -0.055026 19.8101 0.0672838ZM17.927 2.12481L8.69011 11.2431L1.54274 8.96953L17.927 2.12481ZM9.69679 16.4522L9.51112 13.1098L11.415 14.4883L9.69679 16.4522ZM16.7898 16.7471C16.7841 16.7825 16.7633 16.8088 16.7276 16.8237C16.6918 16.8385 16.6595 16.8328 16.6307 16.8122L9.75788 11.8399L19.5586 2.16269L16.7898 16.7471Z" fill="#808080"/>
</svg>
