<svg width="20" height="19" viewBox="0 0 20 19" fill="none" xmlns="http://www.w3.org/2000/svg">
<path d="M10.4682 0.806339L10.4683 0.806358L12.4971 5.62524L12.4971 5.62534C12.7156 6.14394 13.2072 6.49448 13.7672 6.53884L13.8067 6.0404L13.7672 6.53884L19.0332 6.95592C19.491 6.99218 19.6547 7.54174 19.3239 7.82172L19.6417 8.19732L19.3239 7.82173L15.3118 11.217C14.8821 11.5806 14.6922 12.1538 14.8246 12.7017L16.0503 17.7783C16.0503 17.7783 16.0503 17.7783 16.0503 17.7784C16.1497 18.1903 15.6895 18.5522 15.2913 18.312L10.7829 15.5915C10.7829 15.5915 10.7829 15.5915 10.7829 15.5915C10.3019 15.3012 9.69801 15.3012 9.21707 15.5916L4.70868 18.312C4.70868 18.312 4.70867 18.312 4.70867 18.312C4.31044 18.5523 3.85022 18.1902 3.94967 17.7784L3.46364 17.661L3.94967 17.7784L5.17544 12.7017C5.30776 12.1539 5.11795 11.5807 4.68825 11.217L0.676057 7.82173C0.676056 7.82173 0.676055 7.82172 0.676054 7.82172C0.345213 7.54174 0.508904 6.99218 0.966765 6.95592L6.23283 6.53884C6.79284 6.49449 7.28452 6.14393 7.50289 5.62524L9.5317 0.806356C9.70369 0.397858 10.2963 0.39791 10.4682 0.806339Z" stroke="black"/>
</svg>
