<svg width="20" height="20" viewBox="0 0 20 20" fill="none" xmlns="http://www.w3.org/2000/svg">
<path fill-rule="evenodd" clip-rule="evenodd" d="M10 8C8.89543 8 8 8.89543 8 10C8 11.1046 8.89543 12 10 12C11.1046 12 12 11.1046 12 10C12 8.89543 11.1046 8 10 8ZM6 10C6 7.79086 7.79086 6 10 6C12.2091 6 14 7.79086 14 10C14 12.2091 12.2091 14 10 14C7.79086 14 6 12.2091 6 10Z" fill="#4F4B5C"/>
<path fill-rule="evenodd" clip-rule="evenodd" d="M7.71923 0H12.2808L12.9185 2.55081C13.0143 2.58876 13.1089 2.62844 13.2024 2.66973L15.4583 1.31619L18.6838 4.54164L17.3302 6.79766C17.3715 6.89111 17.4112 6.98573 17.4491 7.08151L20 7.71924V12.2808L17.4492 12.9185C17.4112 13.0143 17.3716 13.1089 17.3303 13.2024L18.6838 15.4583L15.4583 18.6838L13.2023 17.3303C13.1089 17.3716 13.0143 17.4112 12.9185 17.4492L12.2808 20H7.71924L7.08152 17.4492C6.98574 17.4112 6.89112 17.3716 6.79767 17.3303L4.5417 18.6838L1.31618 15.4583L2.66975 13.2023C2.62846 13.1089 2.58878 13.0143 2.55083 12.9185L0 12.2808V7.71924L2.55085 7.08151C2.58881 6.98573 2.6285 6.89111 2.66979 6.79766L1.31616 4.54164L4.5417 1.31619L6.79764 2.66973C6.8911 2.62844 6.98573 2.58876 7.08151 2.55081L7.71923 0ZM9.28077 2L8.75523 4.10213L8.21805 4.26892C7.87259 4.37619 7.53733 4.51855 7.21194 4.68986L6.71407 4.95197L4.85172 3.83457L3.83458 4.85168L4.95198 6.714L4.68997 7.21184C4.5186 7.53746 4.37614 7.87274 4.26892 8.21805L4.10213 8.75524L2 9.28078V10.7192L4.10213 11.2448L4.26892 11.782C4.37617 12.1274 4.51858 12.4626 4.68991 12.7882L4.95192 13.286L3.83458 15.1483L4.85174 16.1654L6.71401 15.0481L7.21183 15.3101C7.53738 15.4814 7.87266 15.6239 8.21805 15.7311L8.75524 15.8979L9.28078 18H10.7192L11.2448 15.8979L11.782 15.7311C12.1273 15.6239 12.4626 15.4814 12.7882 15.3101L13.286 15.0481L15.1483 16.1654L16.1654 15.1483L15.0481 13.286L15.3101 12.7882C15.4814 12.4626 15.6239 12.1274 15.7311 11.782L15.8979 11.2448L18 10.7192V9.28078L15.8979 8.75524L15.7311 8.21806C15.6239 7.87275 15.4814 7.53746 15.31 7.21184L15.048 6.714L16.1654 4.85168L15.1483 3.83457L13.2859 4.95197L12.7881 4.68986C12.4627 4.51855 12.1274 4.37619 11.782 4.26892L11.2448 4.10213L10.7192 2H9.28077Z" fill="#4F4B5C"/>
</svg>
