<svg width="64" height="90" viewBox="0 0 64 90" fill="none" xmlns="http://www.w3.org/2000/svg">
<path d="M28 0C18.0944 0 10 8.09441 10 18C10 27.9056 18.0944 36 28 36C37.9056 36 46 27.9056 46 18C46 8.09441 37.9056 0 28 0ZM28 6C34.6629 6 40 11.337 40 18C40 24.663 34.6629 30 28 30C21.3371 30 16 24.663 16 18C16 11.337 21.3371 6 28 6ZM28 40C19.8642 40 12.7217 45.0068 7.8125 52.4688C2.9033 59.9307 0 69.9733 0 81C7.94975e-05 81.7956 0.316175 82.5586 0.878767 83.1212C1.44136 83.6838 2.20437 83.9999 3 84H32.625C35.9257 87.6744 40.6981 90 46 90C55.9056 90 64 81.9055 64 72C64 63.2127 57.6347 55.8628 49.2812 54.3125C44.3338 45.821 36.7867 40 28 40ZM28 46C33.2374 46 38.2182 49.0349 42.1875 54.4375C34.0988 56.1968 28 63.4014 28 72C28 74.1043 28.3921 76.1194 29.0625 78H6.21875C6.70407 69.2653 9.13119 61.4243 12.8438 55.7812C16.9828 49.49 22.3286 46 28 46ZM46 60C52.663 60 58 65.337 58 72C58 78.6629 52.6629 84 46 84C39.3371 84 34 78.6629 34 72C34 65.337 39.337 60 46 60ZM40.6875 69C40.2935 69.0205 39.9074 69.1183 39.5512 69.288C39.195 69.4577 38.8757 69.6959 38.6116 69.989C38.3475 70.2821 38.1437 70.6243 38.0118 70.9962C37.88 71.3681 37.8227 71.7623 37.8432 72.1563C37.8637 72.5503 37.9617 72.9364 38.1314 73.2925C38.3012 73.6487 38.5394 73.9679 38.8326 74.232C39.1257 74.4961 39.468 74.6998 39.8399 74.8316C40.2118 74.9634 40.606 75.0206 41 75H51C51.3975 75.0056 51.7922 74.9322 52.1611 74.7839C52.53 74.6357 52.8658 74.4156 53.1489 74.1365C53.432 73.8573 53.6568 73.5247 53.8103 73.158C53.9637 72.7912 54.0427 72.3976 54.0427 72C54.0427 71.6024 53.9637 71.2088 53.8103 70.842C53.6568 70.4753 53.432 70.1427 53.1489 69.8635C52.8658 69.5844 52.53 69.3643 52.1611 69.2161C51.7922 69.0678 51.3975 68.9944 51 69H41C40.8959 68.9946 40.7916 68.9946 40.6875 69Z" fill="#4F4B5C"/>
</svg>
