<svg width="37" height="40" viewBox="0 0 37 40" fill="none" xmlns="http://www.w3.org/2000/svg">
<path d="M21.3523 23.8574L24.3295 21.6244V31.3006M11.6761 21.6244H16.8864L13.9091 25.3459C14.3986 25.3459 14.8806 25.4667 15.3124 25.6974C15.7441 25.9281 16.1123 26.2618 16.3844 26.6688C16.6564 27.0758 16.8239 27.5435 16.872 28.0307C16.9201 28.5179 16.8473 29.0094 16.6601 29.4617C16.4729 29.9141 16.177 30.3133 15.7987 30.624C15.4204 30.9347 14.9714 31.1473 14.4913 31.243C14.0112 31.3387 13.5149 31.3146 13.0464 31.1728C12.5778 31.0309 12.1515 30.7757 11.8051 30.4298M2 14.1818H34.75M27.3068 2.27271V8.22725M9.44318 2.27271V8.22725M3.48864 5.24998H33.2614C34.0835 5.24998 34.75 5.91646 34.75 6.73861V36.5113C34.75 37.3335 34.0835 38 33.2614 38H3.48864C2.66649 38 2 37.3335 2 36.5113V6.73861C2 5.91646 2.66649 5.24998 3.48864 5.24998Z" stroke="#6C6C6C" stroke-width="3" stroke-linecap="round" stroke-linejoin="round"/>
</svg>
