<svg width="23" height="20" viewBox="0 0 23 20" fill="none" xmlns="http://www.w3.org/2000/svg">
<g clip-path="url(#clip0_104_7718)">
<path d="M11.7319 4.375C11.7319 4.20924 11.661 4.05027 11.5349 3.93306C11.4088 3.81585 11.2378 3.75 11.0594 3.75C10.8811 3.75 10.7101 3.81585 10.584 3.93306C10.4579 4.05027 10.387 4.20924 10.387 4.375V11.25C10.387 11.3602 10.4184 11.4684 10.4779 11.5636C10.5374 11.6589 10.623 11.7379 10.7259 11.7925L15.4329 14.2925C15.5874 14.3701 15.7684 14.3885 15.9372 14.3437C16.106 14.2989 16.2493 14.1944 16.3364 14.0527C16.4236 13.9111 16.4476 13.7433 16.4034 13.5854C16.3592 13.4274 16.2503 13.2918 16.1 13.2075L11.7319 10.8875V4.375Z" fill="#212529"/>
<path d="M11.7319 20C14.5853 20 17.3218 18.9464 19.3395 17.0711C21.3572 15.1957 22.4907 12.6522 22.4907 10C22.4907 7.34784 21.3572 4.8043 19.3395 2.92893C17.3218 1.05357 14.5853 0 11.7319 0C8.87844 0 6.14189 1.05357 4.12421 2.92893C2.10654 4.8043 0.973022 7.34784 0.973022 10C0.973022 12.6522 2.10654 15.1957 4.12421 17.0711C6.14189 18.9464 8.87844 20 11.7319 20ZM21.1459 10C21.1459 12.3206 20.154 14.5462 18.3886 16.1872C16.6231 17.8281 14.2286 18.75 11.7319 18.75C9.23512 18.75 6.84064 17.8281 5.07517 16.1872C3.30971 14.5462 2.31788 12.3206 2.31788 10C2.31788 7.67936 3.30971 5.45376 5.07517 3.81282C6.84064 2.17187 9.23512 1.25 11.7319 1.25C14.2286 1.25 16.6231 2.17187 18.3886 3.81282C20.154 5.45376 21.1459 7.67936 21.1459 10Z" fill="#212529"/>
</g>
<defs>
<clipPath id="clip0_104_7718">
<rect width="21.5177" height="20" fill="white" transform="translate(0.973022)"/>
</clipPath>
</defs>
</svg>
