<svg width="35" height="35" viewBox="0 0 35 35" fill="none" xmlns="http://www.w3.org/2000/svg">
<path d="M19 8.45833C19 7.62991 18.3284 6.95833 17.5 6.95833C16.6716 6.95833 16 7.62991 16 8.45833H19ZM17.5 17.5H16C16 18.3284 16.6716 19 17.5 19V17.5ZM26.5417 19C27.3701 19 28.0417 18.3284 28.0417 17.5C28.0417 16.6716 27.3701 16 26.5417 16V19ZM31.5 17.5C31.5 25.232 25.232 31.5 17.5 31.5V34.5C26.8888 34.5 34.5 26.8888 34.5 17.5H31.5ZM17.5 31.5C9.76801 31.5 3.5 25.232 3.5 17.5H0.5C0.5 26.8888 8.11116 34.5 17.5 34.5V31.5ZM3.5 17.5C3.5 9.76801 9.76801 3.5 17.5 3.5V0.5C8.11116 0.5 0.5 8.11116 0.5 17.5H3.5ZM17.5 3.5C25.232 3.5 31.5 9.76801 31.5 17.5H34.5C34.5 8.11116 26.8888 0.5 17.5 0.5V3.5ZM16 8.45833V17.5H19V8.45833H16ZM17.5 19H26.5417V16H17.5V19Z" fill="#6C6C6C"/>
</svg>
