<svg width="19" height="19" viewBox="0 0 19 19" fill="none" xmlns="http://www.w3.org/2000/svg">
<path d="M12.625 9.625C12.625 11.2819 11.2819 12.625 9.625 12.625V14.125C12.1103 14.125 14.125 12.1103 14.125 9.625H12.625ZM9.625 12.625C7.96815 12.625 6.625 11.2819 6.625 9.625H5.125C5.125 12.1103 7.13972 14.125 9.625 14.125V12.625ZM6.625 9.625C6.625 7.96815 7.96815 6.625 9.625 6.625V5.125C7.13972 5.125 5.125 7.13972 5.125 9.625H6.625ZM9.625 6.625C11.2819 6.625 12.625 7.96815 12.625 9.625H14.125C14.125 7.13972 12.1103 5.125 9.625 5.125V6.625ZM5.5 1.75H13.75V0.25H5.5V1.75ZM13.75 1.75C15.8211 1.75 17.5 3.42893 17.5 5.5H19C19 2.6005 16.6495 0.25 13.75 0.25V1.75ZM17.5 5.5V13.75H19V5.5H17.5ZM17.5 13.75C17.5 15.8211 15.8211 17.5 13.75 17.5V19C16.6495 19 19 16.6495 19 13.75H17.5ZM13.75 17.5H5.5V19H13.75V17.5ZM5.5 17.5C3.42893 17.5 1.75 15.8211 1.75 13.75H0.25C0.25 16.6495 2.6005 19 5.5 19V17.5ZM1.75 13.75V5.5H0.25V13.75H1.75ZM1.75 5.5C1.75 3.42893 3.42893 1.75 5.5 1.75V0.25C2.6005 0.25 0.25 2.6005 0.25 5.5H1.75Z" fill="#909090"/>
</svg>
