<svg width="29" height="26" viewBox="0 0 29 26" fill="none" xmlns="http://www.w3.org/2000/svg">
<g clip-path="url(#clip0_104_7717)">
<path d="M22.0153 14.5275C21.0992 16.2533 19.8579 17.9725 18.5886 19.5163C17.3845 20.9716 16.0971 22.3657 14.7318 23.6925C13.3665 22.3657 12.0791 20.9717 10.875 19.5163C9.60576 17.9725 8.36446 16.2533 7.44835 14.5275C6.52174 12.7839 5.99026 11.1508 5.99026 9.75C5.99026 7.59512 6.91124 5.52849 8.5506 4.00476C10.19 2.48102 12.4134 1.625 14.7318 1.625C17.0502 1.625 19.2737 2.48102 20.913 4.00476C22.5524 5.52849 23.4734 7.59512 23.4734 9.75C23.4734 11.1508 22.9401 12.7839 22.0153 14.5275ZM14.7318 26C14.7318 26 25.2217 16.7603 25.2217 9.75C25.2217 7.16414 24.1165 4.68419 22.1493 2.85571C20.182 1.02723 17.5139 0 14.7318 0C11.9497 0 9.28159 1.02723 7.31436 2.85571C5.34712 4.68419 4.24194 7.16414 4.24194 9.75C4.24194 16.7603 14.7318 26 14.7318 26Z" fill="#212529"/>
<path d="M14.7318 13C13.8045 13 12.9151 12.6576 12.2593 12.0481C11.6036 11.4386 11.2352 10.612 11.2352 9.75C11.2352 8.88805 11.6036 8.0614 12.2593 7.4519C12.9151 6.84241 13.8045 6.5 14.7318 6.5C15.6592 6.5 16.5486 6.84241 17.2043 7.4519C17.86 8.0614 18.2284 8.88805 18.2284 9.75C18.2284 10.612 17.86 11.4386 17.2043 12.0481C16.5486 12.6576 15.6592 13 14.7318 13ZM14.7318 14.625C16.1229 14.625 17.4569 14.1114 18.4405 13.1971C19.4242 12.2829 19.9768 11.0429 19.9768 9.75C19.9768 8.45707 19.4242 7.21709 18.4405 6.30285C17.4569 5.38861 16.1229 4.875 14.7318 4.875C13.3408 4.875 12.0067 5.38861 11.0231 6.30285C10.0395 7.21709 9.48688 8.45707 9.48688 9.75C9.48688 11.0429 10.0395 12.2829 11.0231 13.1971C12.0067 14.1114 13.3408 14.625 14.7318 14.625Z" fill="#212529"/>
</g>
<defs>
<clipPath id="clip0_104_7717">
<rect width="27.973" height="26" fill="white" transform="translate(0.745361)"/>
</clipPath>
</defs>
</svg>
