<svg width="10" height="12" viewBox="0 0 10 12" fill="none" xmlns="http://www.w3.org/2000/svg">
<path d="M1.36269 12C1.18355 12.0005 1.00587 11.9762 0.84038 11.9284C0.674887 11.8806 0.524852 11.8103 0.398822 11.7216C0.143489 11.5435 0 11.3022 0 11.0508C0 10.7991 0.143489 10.5579 0.398822 10.38L6.7094 5.98818L0.398822 1.59635C0.157856 1.4164 0.0267332 1.17841 0.0329165 0.932498C0.0392816 0.686583 0.182408 0.451945 0.432285 0.278032C0.682162 0.104107 1.01933 0.00448836 1.37269 0.000147199C1.72604 -0.00418131 2.06794 0.0870976 2.32655 0.25477L9.601 5.31739C9.85651 5.49534 10 5.73657 10 5.98818C10 6.23966 9.85651 6.48089 9.601 6.65897L2.32655 11.7216C2.2007 11.8103 2.05048 11.8806 1.88499 11.9284C1.7195 11.9762 1.542 12.0005 1.36269 12Z" fill="#7E79FF"/>
</svg>
