<svg width="120" height="49" viewBox="0 0 120 49" fill="none" xmlns="http://www.w3.org/2000/svg">
<path fill-rule="evenodd" clip-rule="evenodd" d="M33.0607 14.746L23.1954 34.0318H13.9289L18.0576 26.0389H17.8724C14.4663 30.4605 9.38424 33.3713 2.14316 34.0318V26.1496C2.14316 26.1496 6.77545 25.876 9.49864 23.0129H2.14316V14.7462H10.4099V21.5455L10.5955 21.5447L13.9736 14.7462H20.2255V21.5024L20.411 21.5021L23.9159 14.746H33.0607Z" fill="black"/>
<path d="M86.8577 31.9031H89.5201V16.621H86.8577V31.9031Z" fill="black"/>
<path fill-rule="evenodd" clip-rule="evenodd" d="M72.1798 31.7471C72.7584 31.9876 73.3468 32.1079 73.945 32.1079C74.9332 32.1079 75.8174 31.8674 76.5976 31.3862C77.3778 30.9051 77.9825 30.242 78.4116 29.3968C78.8407 28.5451 79.0552 27.5795 79.0552 26.5003C79.0552 25.421 78.8342 24.4556 78.3921 23.6038C77.9499 22.7521 77.3355 22.0922 76.5488 21.6241C75.7621 21.1495 74.8681 20.9154 73.8669 20.9219C73.2298 20.9219 72.6187 21.0455 72.0334 21.2925C71.4483 21.5396 70.9607 21.8907 70.5706 22.3458C70.5405 22.3804 70.5113 22.4154 70.4829 22.4508V16.6309H67.8107V31.9032H70.4634L70.458 30.4765C70.5266 30.5606 70.6 30.6427 70.6779 30.7231C71.1004 31.1588 71.6011 31.5 72.1798 31.7471ZM74.9105 29.2798C74.4748 29.5464 73.9774 29.6796 73.4183 29.6796C72.8656 29.6796 72.3585 29.543 71.8969 29.27C71.4353 28.9904 71.068 28.6101 70.7949 28.129C70.5283 27.6479 70.395 27.1017 70.395 26.4905C70.3886 25.8794 70.5185 25.3333 70.7851 24.8522C71.0582 24.3645 71.4255 23.9874 71.8872 23.7209C72.3488 23.4478 72.8592 23.3145 73.4183 23.321C73.9774 23.3145 74.4748 23.4445 74.9105 23.7111C75.3525 23.9712 75.6906 24.345 75.9247 24.8326C76.1652 25.3138 76.2855 25.8664 76.2855 26.4905C76.2855 27.1147 76.1652 27.6674 75.9247 28.1485C75.6906 28.6296 75.3525 29.0067 74.9105 29.2798Z" fill="black"/>
<path d="M36.9179 17.5475H39.9607L42.6826 27.4879L45.5781 17.5475H48.1138L51.254 27.2884L53.8677 17.5475H56.6569L52.5414 31.9031H49.918L46.7247 22.3871L43.7934 31.9031H41.1408L36.9179 17.5475Z" fill="black"/>
<path fill-rule="evenodd" clip-rule="evenodd" d="M61.1503 32.1566C60.0904 32.1631 59.1347 31.929 58.283 31.4545C57.4378 30.9733 56.7715 30.3069 56.2837 29.4552C55.8027 28.6035 55.5621 27.6315 55.5621 26.5392C55.5621 25.4794 55.8092 24.5205 56.3034 23.6623C56.7974 22.804 57.467 22.1344 58.3123 21.6533C59.1575 21.1721 60.1002 20.9316 61.1405 20.9316C62.3108 20.9316 63.3348 21.1916 64.2125 21.7118C65.0967 22.2319 65.7566 22.9698 66.1923 23.9256C66.6343 24.8748 66.7937 25.9638 66.6701 27.1926H58.3165C58.3398 27.6822 58.462 28.1276 58.6829 28.5287C58.93 28.9708 59.2745 29.3154 59.7166 29.5624C60.1588 29.8095 60.6528 29.933 61.1991 29.933C61.6151 29.9265 62.002 29.855 62.3595 29.7185C62.7172 29.5755 63.0194 29.3837 63.2665 29.1431C63.5201 28.9025 63.6989 28.6295 63.803 28.324H66.5921C66.4231 29.0716 66.085 29.738 65.5779 30.3231C65.0707 30.9018 64.4336 31.3537 63.6664 31.6787C62.8992 32.0038 62.0605 32.1631 61.1503 32.1566ZM58.6927 24.5107C58.5369 24.7824 58.4289 25.0749 58.3688 25.3884H63.9063C63.8661 24.9924 63.7438 24.6316 63.5396 24.3059C63.3055 23.9223 62.987 23.6265 62.5839 23.4184C62.1808 23.2039 61.7257 23.0966 61.2186 23.0966C60.6789 23.0966 60.1881 23.2201 59.7459 23.4672C59.3038 23.7143 58.9527 24.0621 58.6927 24.5107Z" fill="black"/>
<path d="M81.0158 21.1559C81.0158 20.2847 81.214 19.511 81.6106 18.8349C82.0072 18.1522 82.5631 17.6223 83.2783 17.2452C83.9999 16.8616 84.842 16.6633 85.8041 16.6503V19.0202C85.3555 19.0267 84.9719 19.1209 84.6534 19.303C84.3413 19.4785 84.1008 19.7353 83.9317 20.0734C83.7761 20.3847 83.6921 20.7455 83.6798 21.1559H85.7456V23.4088H83.6782V31.9031H81.0158V23.4088H79.2993V21.1559H81.0158Z" fill="black"/>
<path fill-rule="evenodd" clip-rule="evenodd" d="M96.2878 32.1371C95.202 32.1371 94.23 31.8998 93.3718 31.4252C92.5201 30.944 91.8505 30.2809 91.3629 29.4357C90.8817 28.584 90.6412 27.6185 90.6412 26.5392C90.6412 25.4535 90.8817 24.4847 91.3629 23.633C91.8505 22.7748 92.5201 22.1084 93.3718 21.6337C94.23 21.1591 95.202 20.9218 96.2878 20.9218C97.38 20.9218 98.3554 21.1591 99.2135 21.6337C100.078 22.1084 100.751 22.7715 101.232 23.6232C101.713 24.4749 101.957 25.4469 101.964 26.5392C101.957 27.6185 101.713 28.584 101.232 29.4357C100.758 30.2809 100.088 30.944 99.2232 31.4252C98.3586 31.8998 97.38 32.1371 96.2878 32.1371ZM96.2878 29.6893C96.86 29.6893 97.3671 29.5592 97.8092 29.2992C98.2513 29.0326 98.5926 28.662 98.8332 28.1873C99.0738 27.7063 99.194 27.1568 99.194 26.5392C99.194 25.915 99.0738 25.3624 98.8332 24.8813C98.5926 24.4002 98.2513 24.0296 97.8092 23.7695C97.3671 23.503 96.86 23.3697 96.2878 23.3697C95.7222 23.3697 95.2183 23.503 94.7761 23.7695C94.3406 24.0296 94.0025 24.4002 93.7619 24.8813C93.5214 25.3624 93.4044 25.915 93.4108 26.5392C93.4108 27.1568 93.5311 27.7063 93.7717 28.1873C94.0187 28.662 94.3568 29.0326 94.7859 29.2992C95.2215 29.5592 95.7222 29.6893 96.2878 29.6893Z" fill="black"/>
<path d="M104.841 21.1559H101.876L105.085 31.9031H107.679L109.789 25.0388L112.067 31.9031H114.622L117.841 21.1559H115.159L113.333 27.8453L111.316 21.1559H108.722L106.715 27.9927L104.841 21.1559Z" fill="black"/>
</svg>
