<svg width="350" height="64" viewBox="0 0 350 64" fill="none" xmlns="http://www.w3.org/2000/svg">
<path d="M126.547 62.9976C123.75 62.9976 121.183 62.427 118.843 61.2858C116.503 60.0874 114.592 58.5182 113.108 56.578C111.625 54.5808 110.769 52.3554 110.54 49.9017V32.3548C110.769 29.9011 111.625 27.7327 113.108 25.8496C114.592 23.9094 116.503 22.3973 118.843 21.3131C121.183 20.2289 123.75 19.6868 126.547 19.6868C130.484 19.6868 133.965 20.6283 136.989 22.5114C140.07 24.3945 142.467 26.9623 144.179 30.2149C145.948 33.4675 146.832 37.1766 146.832 41.3422C146.832 45.5078 145.948 49.2169 144.179 52.4695C142.467 55.7221 140.07 58.2899 136.989 60.173C133.965 62.0561 130.484 62.9976 126.547 62.9976ZM124.235 51.1856C126.061 51.1856 127.659 50.7576 129.029 49.9017C130.455 49.0457 131.568 47.8759 132.367 46.3923C133.166 44.9086 133.565 43.2253 133.565 41.3422C133.565 39.4021 133.166 37.6902 132.367 36.2065C131.568 34.7229 130.455 33.5816 129.029 32.7827C127.659 31.9268 126.061 31.4988 124.235 31.4988C122.409 31.4988 120.783 31.9268 119.357 32.7827C117.93 33.5816 116.817 34.7229 116.018 36.2065C115.277 37.6902 114.906 39.4021 114.906 41.3422C114.906 43.2823 115.305 44.9942 116.104 46.4779C116.903 47.9615 117.987 49.1313 119.357 49.9873C120.783 50.7861 122.409 51.1856 124.235 51.1856ZM102.58 62.1417V0H115.676V30.7285L113.536 40.8286L115.505 50.9288V62.1417H102.58Z" fill="white"/>
<path d="M167.523 63.0832C163.243 63.0832 159.363 62.1417 155.882 60.2586C152.458 58.3185 149.748 55.6936 147.751 52.3839C145.753 49.0743 144.755 45.3652 144.755 41.2566C144.755 37.1481 145.753 33.4675 147.751 30.2149C149.748 26.9623 152.458 24.3945 155.882 22.5114C159.306 20.5712 163.186 19.6012 167.523 19.6012C171.86 19.6012 175.74 20.5427 179.164 22.4258C182.588 24.3089 185.298 26.9052 187.295 30.2149C189.293 33.4675 190.291 37.1481 190.291 41.2566C190.291 45.3652 189.293 49.0743 187.295 52.3839C185.298 55.6936 182.588 58.3185 179.164 60.2586C175.74 62.1417 171.86 63.0832 167.523 63.0832ZM167.523 51.1856C169.406 51.1856 171.061 50.7861 172.487 49.9873C173.914 49.1313 174.998 47.9615 175.74 46.4779C176.539 44.9372 176.938 43.1968 176.938 41.2566C176.938 39.3165 176.539 37.6331 175.74 36.2065C174.941 34.7229 173.828 33.5816 172.402 32.7827C171.032 31.9268 169.406 31.4988 167.523 31.4988C165.697 31.4988 164.071 31.9268 162.644 32.7827C161.217 33.5816 160.105 34.7229 159.306 36.2065C158.507 37.6902 158.108 39.4021 158.108 41.3422C158.108 43.2253 158.507 44.9372 159.306 46.4779C160.105 47.9615 161.217 49.1313 162.644 49.9873C164.071 50.7861 165.697 51.1856 167.523 51.1856Z" fill="white"/>
<path d="M209.308 63.0832C205.485 63.0832 202.089 62.3129 199.122 60.7722C196.212 59.1744 193.929 57.006 192.274 54.267C190.62 51.4709 189.792 48.2754 189.792 44.6804V20.5427H202.888V44.5092C202.888 45.9358 203.116 47.1626 203.573 48.1898C204.087 49.2169 204.828 50.0158 205.798 50.5864C206.769 51.1571 207.938 51.4424 209.308 51.4424C211.248 51.4424 212.789 50.8432 213.93 49.6449C215.071 48.3895 215.642 46.6776 215.642 44.5092V20.5427H228.738V44.5948C228.738 48.2468 227.91 51.4709 226.256 54.267C224.601 57.006 222.318 59.1744 219.408 60.7722C216.498 62.3129 213.131 63.0832 209.308 63.0832Z" fill="white"/>
<path d="M258.444 62.1417V38.432C258.444 36.2636 257.76 34.5232 256.39 33.2107C255.078 31.8412 253.394 31.1564 251.34 31.1564C249.914 31.1564 248.658 31.4703 247.574 32.098C246.49 32.6686 245.634 33.5246 245.006 34.6658C244.378 35.75 244.065 37.0054 244.065 38.432L239.015 35.9497C239.015 32.6971 239.728 29.844 241.154 27.3903C242.581 24.9366 244.55 23.0535 247.06 21.741C249.628 20.3715 252.51 19.6868 255.705 19.6868C258.787 19.6868 261.497 20.4286 263.837 21.9122C266.234 23.3388 268.117 25.2504 269.486 27.6471C270.856 30.0437 271.54 32.6686 271.54 35.5218V62.1417H258.444ZM230.969 62.1417V20.5427H244.065V62.1417H230.969Z" fill="white"/>
<path d="M294.075 63.0832C289.795 63.0832 285.915 62.1417 282.434 60.2586C278.953 58.3755 276.214 55.7792 274.217 52.4695C272.219 49.1599 271.221 45.4507 271.221 41.3422C271.221 37.1766 272.219 33.4675 274.217 30.2149C276.271 26.9052 279.038 24.3089 282.519 22.4258C286 20.5427 289.909 19.6012 294.246 19.6012C297.498 19.6012 300.466 20.1718 303.148 21.3131C305.887 22.3973 308.312 24.0521 310.423 26.2775L302.035 34.6658C301.065 33.5816 299.924 32.7827 298.611 32.2692C297.356 31.7556 295.901 31.4988 294.246 31.4988C292.363 31.4988 290.679 31.9268 289.196 32.7827C287.769 33.5816 286.628 34.7229 285.772 36.2065C284.973 37.6331 284.574 39.3165 284.574 41.2566C284.574 43.1968 284.973 44.9086 285.772 46.3923C286.628 47.8759 287.798 49.0457 289.281 49.9017C290.765 50.7576 292.42 51.1856 294.246 51.1856C295.958 51.1856 297.47 50.9003 298.782 50.3296C300.152 49.7019 301.322 48.846 302.292 47.7618L310.594 56.1501C308.426 58.4326 305.972 60.173 303.233 61.3713C300.494 62.5126 297.441 63.0832 294.075 63.0832Z" fill="white"/>
<path d="M329.971 63.0832C325.463 63.0832 321.44 62.1702 317.902 60.3442C314.421 58.4611 311.682 55.8648 309.685 52.5551C307.688 49.2454 306.689 45.5078 306.689 41.3422C306.689 37.1766 307.659 33.4675 309.599 30.2149C311.597 26.9052 314.278 24.3089 317.645 22.4258C321.012 20.5427 324.807 19.6012 329.029 19.6012C333.138 19.6012 336.761 20.4856 339.9 22.2546C343.038 24.0236 345.492 26.4773 347.261 29.6157C349.087 32.7542 350 36.3492 350 40.4007C350 41.1425 349.943 41.9414 349.829 42.7973C349.772 43.5962 349.629 44.5377 349.401 45.6219L313.537 45.7075V36.7201L343.837 36.6345L338.188 40.4007C338.131 38.004 337.76 36.0353 337.075 34.4946C336.39 32.8969 335.363 31.6985 333.994 30.8997C332.681 30.0437 331.055 29.6157 329.115 29.6157C327.061 29.6157 325.263 30.1008 323.722 31.0709C322.239 31.9839 321.069 33.2963 320.213 35.0082C319.414 36.7201 319.015 38.8029 319.015 41.2566C319.015 43.7103 319.443 45.8217 320.299 47.5906C321.212 49.3025 322.467 50.6435 324.065 51.6136C325.72 52.5266 327.66 52.9831 329.885 52.9831C331.94 52.9831 333.794 52.6407 335.449 51.9559C337.104 51.2141 338.559 50.1299 339.814 48.7033L347.004 55.8933C344.95 58.2899 342.468 60.0874 339.557 61.2858C336.647 62.4841 333.452 63.0832 329.971 63.0832Z" fill="white"/>
<circle cx="75.8939" cy="25.6213" r="14.2658" fill="white"/>
<path d="M0 23.0535C26.5343 23.0535 38.8029 35.0367 38.8029 61.0004" stroke="url(#paint0_linear_104_3094)" stroke-width="8"/>
<path d="M70.1876 27.9038C52.4981 27.9038 38.8029 39.4975 38.8029 61.571" stroke="white" stroke-width="8"/>
<defs>
<linearGradient id="paint0_linear_104_3094" x1="36.6834" y1="52.8975" x2="2.05509" y2="26.3925" gradientUnits="userSpaceOnUse">
<stop stop-color="white"/>
<stop offset="1" stop-color="white" stop-opacity="0"/>
</linearGradient>
</defs>
</svg>
